<svg width="178" height="53" viewBox="0 0 178 53" fill="none" xmlns="http://www.w3.org/2000/svg">
<path d="M9.512 9.632C9.59733 9.632 9.672 9.66667 9.736 9.736L10.352 10.4C9.88267 10.944 9.312 11.368 8.64 11.672C7.97333 11.976 7.16533 12.128 6.216 12.128C5.39467 12.128 4.648 11.9867 3.976 11.704C3.304 11.416 2.73067 11.016 2.256 10.504C1.78133 9.98667 1.41333 9.368 1.152 8.648C0.890667 7.928 0.76 7.136 0.76 6.272C0.76 5.408 0.896 4.616 1.168 3.896C1.44 3.176 1.82133 2.55733 2.312 2.04C2.808 1.52267 3.4 1.12267 4.088 0.839999C4.776 0.551999 5.536 0.407999 6.368 0.407999C7.184 0.407999 7.904 0.538666 8.528 0.799999C9.152 1.06133 9.70133 1.416 10.176 1.864L9.664 2.576C9.632 2.62933 9.58933 2.67467 9.536 2.712C9.488 2.744 9.42133 2.76 9.336 2.76C9.24 2.76 9.12267 2.70933 8.984 2.608C8.84533 2.50133 8.664 2.384 8.44 2.256C8.216 2.128 7.936 2.01333 7.6 1.912C7.264 1.80533 6.85067 1.752 6.36 1.752C5.768 1.752 5.22667 1.856 4.736 2.064C4.24533 2.26667 3.82133 2.56267 3.464 2.952C3.112 3.34133 2.83733 3.816 2.64 4.376C2.44267 4.936 2.344 5.568 2.344 6.272C2.344 6.98667 2.44533 7.624 2.648 8.184C2.856 8.744 3.136 9.21867 3.488 9.608C3.84533 9.992 4.264 10.2853 4.744 10.488C5.22933 10.6907 5.752 10.792 6.312 10.792C6.65333 10.792 6.96 10.7733 7.232 10.736C7.50933 10.6933 7.76267 10.6293 7.992 10.544C8.22667 10.4587 8.44267 10.352 8.64 10.224C8.84267 10.0907 9.04267 9.93333 9.24 9.752C9.33067 9.672 9.42133 9.632 9.512 9.632ZM15.0753 3.768C15.6673 3.768 16.2006 3.86667 16.6753 4.064C17.1499 4.26133 17.5553 4.54133 17.8913 4.904C18.2273 5.26667 18.4833 5.70667 18.6593 6.224C18.8406 6.736 18.9313 7.30933 18.9313 7.944C18.9313 8.584 18.8406 9.16 18.6593 9.672C18.4833 10.184 18.2273 10.6213 17.8913 10.984C17.5553 11.3467 17.1499 11.6267 16.6753 11.824C16.2006 12.016 15.6673 12.112 15.0753 12.112C14.4779 12.112 13.9393 12.016 13.4593 11.824C12.9846 11.6267 12.5793 11.3467 12.2433 10.984C11.9073 10.6213 11.6486 10.184 11.4673 9.672C11.2913 9.16 11.2033 8.584 11.2033 7.944C11.2033 7.30933 11.2913 6.736 11.4673 6.224C11.6486 5.70667 11.9073 5.26667 12.2433 4.904C12.5793 4.54133 12.9846 4.26133 13.4593 4.064C13.9393 3.86667 14.4779 3.768 15.0753 3.768ZM15.0753 11C15.8753 11 16.4726 10.7333 16.8673 10.2C17.2619 9.66133 17.4593 8.912 17.4593 7.952C17.4593 6.98667 17.2619 6.23467 16.8673 5.696C16.4726 5.15733 15.8753 4.888 15.0753 4.888C14.6699 4.888 14.3153 4.95733 14.0113 5.096C13.7126 5.23467 13.4619 5.43467 13.2593 5.696C13.0619 5.95733 12.9126 6.28 12.8113 6.664C12.7153 7.04267 12.6673 7.472 12.6673 7.952C12.6673 8.912 12.8646 9.66133 13.2593 10.2C13.6593 10.7333 14.2646 11 15.0753 11ZM25.8814 11.032C26.356 11.0107 26.7747 10.9227 27.1374 10.768C27.5054 10.6133 27.812 10.4053 28.0574 10.144C28.308 9.87733 28.4947 9.56 28.6174 9.192C28.7454 8.824 28.8094 8.41067 28.8094 7.952C28.8094 7.488 28.7454 7.072 28.6174 6.704C28.4947 6.33067 28.308 6.01067 28.0574 5.744C27.812 5.47733 27.5054 5.26933 27.1374 5.12C26.7747 4.96533 26.3534 4.87467 25.8734 4.848V10.96L25.8814 11.032ZM24.6174 4.848C24.1374 4.87467 23.716 4.96533 23.3534 5.12C22.9907 5.26933 22.684 5.47733 22.4334 5.744C22.188 6.01067 22.0014 6.33067 21.8734 6.704C21.7507 7.07733 21.6894 7.49333 21.6894 7.952C21.6894 8.41067 21.7507 8.824 21.8734 9.192C22.0014 9.56 22.188 9.87733 22.4334 10.144C22.6787 10.4053 22.9827 10.6133 23.3454 10.768C23.7134 10.9227 24.1347 11.0107 24.6094 11.032L24.6174 10.984V4.848ZM25.9214 3.776C26.588 3.80267 27.188 3.92 27.7214 4.128C28.2547 4.336 28.708 4.62133 29.0814 4.984C29.4547 5.34667 29.74 5.77867 29.9374 6.28C30.14 6.776 30.2414 7.33067 30.2414 7.944C30.2414 8.55733 30.14 9.11467 29.9374 9.616C29.74 10.112 29.4547 10.5413 29.0814 10.904C28.708 11.2613 28.2547 11.544 27.7214 11.752C27.188 11.96 26.588 12.0773 25.9214 12.104V14.792H24.5774V12.104C23.9107 12.0773 23.3107 11.96 22.7774 11.752C22.244 11.544 21.7907 11.2613 21.4174 10.904C21.044 10.5413 20.756 10.112 20.5534 9.616C20.356 9.11467 20.2574 8.55733 20.2574 7.944C20.2574 7.33067 20.356 6.776 20.5534 6.28C20.756 5.77867 21.044 5.34667 21.4174 4.984C21.7907 4.62133 22.244 4.336 22.7774 4.128C23.3107 3.92 23.9107 3.80267 24.5774 3.776V0.535999H25.9214V3.776ZM38.9706 3.896V12H37.5466V6.496C37.5466 6.38933 37.552 6.27467 37.5626 6.152C37.5733 6.02933 37.5866 5.90667 37.6026 5.784C37.5546 5.89067 37.5066 5.98933 37.4586 6.08C37.4106 6.17067 37.36 6.25333 37.3066 6.328L33.3946 11.648C33.336 11.7333 33.2613 11.816 33.1706 11.896C33.0853 11.9707 32.9893 12.008 32.8826 12.008H32.0186V3.904H33.4506V9.408C33.4506 9.50933 33.4453 9.62133 33.4346 9.744C33.424 9.86133 33.4106 9.98133 33.3946 10.104C33.4426 10.0027 33.4906 9.90933 33.5386 9.824C33.5866 9.73333 33.6346 9.65067 33.6826 9.576L37.5946 4.256C37.6533 4.17067 37.728 4.09067 37.8186 4.016C37.9093 3.936 38.008 3.896 38.1146 3.896H38.9706ZM45.4858 7.68V4.856H44.1258C43.8218 4.856 43.5658 4.90133 43.3578 4.992C43.1498 5.07733 42.9818 5.18933 42.8538 5.328C42.7311 5.46133 42.6431 5.61333 42.5898 5.784C42.5364 5.94933 42.5098 6.11467 42.5098 6.28C42.5098 6.71733 42.6698 7.06133 42.9898 7.312C43.3098 7.55733 43.7471 7.68 44.3018 7.68H45.4858ZM46.8458 3.896V12H45.4858V8.584H44.8618C44.7124 8.584 44.5871 8.59733 44.4858 8.624C44.3898 8.64533 44.3044 8.67733 44.2298 8.72C44.1604 8.76267 44.0991 8.81867 44.0458 8.888C43.9924 8.952 43.9364 9.02667 43.8778 9.112L42.1018 11.504C42.0111 11.6747 41.8991 11.8 41.7658 11.88C41.6378 11.96 41.4484 12 41.1978 12H40.2058L42.5578 8.944C42.7498 8.624 43.0031 8.41067 43.3178 8.304C42.9071 8.25067 42.5604 8.15467 42.2778 8.016C41.9951 7.87733 41.7631 7.71467 41.5818 7.528C41.4058 7.336 41.2778 7.12533 41.1978 6.896C41.1178 6.66667 41.0778 6.43467 41.0778 6.2C41.0778 5.92267 41.1311 5.64533 41.2378 5.368C41.3498 5.09067 41.5258 4.84533 41.7658 4.632C42.0058 4.41333 42.3151 4.23733 42.6938 4.104C43.0778 3.96533 43.5418 3.896 44.0858 3.896H46.8458ZM49.0244 13.936C48.9817 13.8987 48.9524 13.864 48.9364 13.832C48.9204 13.8 48.9124 13.76 48.9124 13.712C48.9124 13.6747 48.923 13.6373 48.9444 13.6C48.971 13.5627 49.0004 13.528 49.0324 13.496C49.0857 13.4373 49.1524 13.36 49.2324 13.264C49.3177 13.168 49.403 13.0533 49.4884 12.92C49.5737 12.792 49.651 12.648 49.7204 12.488C49.795 12.3333 49.8484 12.168 49.8804 11.992C49.8644 11.9973 49.8457 12 49.8244 12C49.8084 12 49.7924 12 49.7764 12C49.499 12 49.2724 11.9093 49.0964 11.728C48.9257 11.5413 48.8404 11.304 48.8404 11.016C48.8404 10.7653 48.9257 10.552 49.0964 10.376C49.2724 10.2 49.5044 10.112 49.7924 10.112C49.9524 10.112 50.0937 10.1413 50.2164 10.2C50.339 10.2587 50.4404 10.3413 50.5204 10.448C50.6057 10.5493 50.6697 10.6693 50.7124 10.808C50.755 10.9413 50.7764 11.088 50.7764 11.248C50.7764 11.488 50.7417 11.7387 50.6724 12C50.6084 12.256 50.5097 12.5093 50.3764 12.76C50.2484 13.016 50.091 13.264 49.9044 13.504C49.7177 13.744 49.5044 13.9653 49.2644 14.168L49.0244 13.936ZM61.7511 4.296C61.8258 4.17867 61.9245 4.08267 62.0471 4.008C62.1698 3.93333 62.3005 3.896 62.4391 3.896H63.5511L61.4471 6.984C61.3191 7.18133 61.1858 7.344 61.0471 7.472C60.9085 7.59467 60.7378 7.69067 60.5351 7.76C60.7911 7.82933 61.0071 7.93867 61.1831 8.088C61.3591 8.232 61.5165 8.41867 61.6551 8.648L63.7831 12H62.7911C62.5351 12 62.3378 11.9573 62.1991 11.872C62.0605 11.7867 61.9405 11.664 61.8391 11.504L60.2631 8.984C60.0125 8.568 59.6365 8.36 59.1351 8.36H58.2631V12.008H56.8311V3.896H58.2631V7.4H59.0311C59.4578 7.4 59.7911 7.21867 60.0311 6.856L61.7511 4.296ZM68.2244 11C68.7577 11 69.179 10.8773 69.4884 10.632C69.7977 10.3813 69.9524 10.04 69.9524 9.608C69.9524 9.416 69.923 9.24267 69.8644 9.088C69.8057 8.928 69.7097 8.78933 69.5764 8.672C69.443 8.55467 69.2644 8.464 69.0404 8.4C68.8217 8.336 68.5524 8.304 68.2324 8.304H66.4804V11H68.2244ZM66.4804 4.856V7.4H68.0404C68.275 7.4 68.491 7.368 68.6884 7.304C68.891 7.23467 69.0644 7.14133 69.2084 7.024C69.3524 6.90133 69.4644 6.75733 69.5444 6.592C69.6244 6.42133 69.6644 6.23467 69.6644 6.032C69.6644 5.88267 69.6377 5.73867 69.5844 5.6C69.531 5.456 69.4404 5.33067 69.3124 5.224C69.1844 5.112 69.0164 5.024 68.8084 4.96C68.6004 4.89067 68.3444 4.856 68.0404 4.856H66.4804ZM68.0804 3.896C68.5817 3.896 69.011 3.94667 69.3684 4.048C69.7257 4.14933 70.019 4.288 70.2484 4.464C70.4777 4.63467 70.6457 4.83733 70.7524 5.072C70.859 5.30667 70.9124 5.55733 70.9124 5.824C70.9124 6 70.8884 6.184 70.8404 6.376C70.7924 6.568 70.707 6.752 70.5844 6.928C70.467 7.104 70.3044 7.264 70.0964 7.408C69.8937 7.54667 69.6377 7.656 69.3284 7.736C69.947 7.84267 70.4244 8.05867 70.7604 8.384C71.0964 8.704 71.2644 9.128 71.2644 9.656C71.2644 10.0507 71.1844 10.3947 71.0244 10.688C70.8697 10.976 70.6537 11.2187 70.3764 11.416C70.1044 11.6133 69.7844 11.76 69.4164 11.856C69.0484 11.952 68.6537 12 68.2324 12H65.1124V3.896H68.0804ZM72.8099 11.12C72.8099 10.9813 72.8339 10.8507 72.8819 10.728C72.9352 10.6053 73.0045 10.4987 73.0899 10.408C73.1805 10.3173 73.2872 10.2453 73.4099 10.192C73.5325 10.1387 73.6632 10.112 73.8019 10.112C73.9405 10.112 74.0712 10.1387 74.1939 10.192C74.3165 10.2453 74.4232 10.3173 74.5139 10.408C74.6045 10.4987 74.6765 10.6053 74.7299 10.728C74.7832 10.8507 74.8099 10.9813 74.8099 11.12C74.8099 11.264 74.7832 11.3973 74.7299 11.52C74.6765 11.6373 74.6045 11.7413 74.5139 11.832C74.4232 11.9227 74.3165 11.992 74.1939 12.04C74.0712 12.0933 73.9405 12.12 73.8019 12.12C73.6632 12.12 73.5325 12.0933 73.4099 12.04C73.2872 11.992 73.1805 11.9227 73.0899 11.832C73.0045 11.7413 72.9352 11.6373 72.8819 11.52C72.8339 11.3973 72.8099 11.264 72.8099 11.12ZM90.5489 0.535999V12H88.9969V3.856C88.9969 3.62667 89.0022 3.38933 89.0129 3.144C89.0235 2.89333 89.0475 2.62933 89.0849 2.352C88.9942 2.592 88.8982 2.816 88.7969 3.024C88.6955 3.232 88.5915 3.41333 88.4849 3.568L83.1089 11.512C83.0342 11.6347 82.9382 11.7467 82.8209 11.848C82.7035 11.9493 82.5675 12 82.4129 12H81.2609V0.535999H82.8129V8.688C82.8129 8.91733 82.8075 9.15733 82.7969 9.408C82.7862 9.65333 82.7622 9.91733 82.7249 10.2C82.8155 9.95467 82.9115 9.728 83.0129 9.52C83.1195 9.312 83.2235 9.128 83.3249 8.968L88.7009 1.024C88.7755 0.901333 88.8715 0.789333 88.9889 0.688C89.1062 0.586666 89.2422 0.535999 89.3969 0.535999H90.5489ZM92.4285 4.728C92.7325 4.44 93.1005 4.208 93.5325 4.032C93.9698 3.856 94.4952 3.768 95.1085 3.768C95.5992 3.768 96.0312 3.82933 96.4045 3.952C96.7778 4.06933 97.0898 4.22667 97.3405 4.424C97.5965 4.62133 97.7885 4.848 97.9165 5.104C98.0498 5.35467 98.1165 5.616 98.1165 5.888C98.1165 6.048 98.0898 6.216 98.0365 6.392C97.9885 6.568 97.9058 6.736 97.7885 6.896C97.6712 7.056 97.5192 7.20533 97.3325 7.344C97.1458 7.48267 96.9138 7.59467 96.6365 7.68C97.1538 7.83467 97.5592 8.08267 97.8525 8.424C98.1512 8.76533 98.3005 9.184 98.3005 9.68C98.3005 10.0533 98.2152 10.392 98.0445 10.696C97.8738 10.9947 97.6445 11.2507 97.3565 11.464C97.0685 11.672 96.7325 11.832 96.3485 11.944C95.9698 12.056 95.5725 12.112 95.1565 12.112C94.8952 12.112 94.6285 12.088 94.3565 12.04C94.0898 11.992 93.8285 11.9173 93.5725 11.816C93.3165 11.7093 93.0738 11.5787 92.8445 11.424C92.6205 11.2693 92.4205 11.0827 92.2445 10.864L92.6445 10.344C92.7085 10.2533 92.7992 10.208 92.9165 10.208C93.0125 10.208 93.1138 10.2507 93.2205 10.336C93.3325 10.416 93.4685 10.5067 93.6285 10.608C93.7885 10.7093 93.9832 10.8027 94.2125 10.888C94.4472 10.968 94.7325 11.008 95.0685 11.008C95.3618 11.008 95.6232 10.9733 95.8525 10.904C96.0872 10.8293 96.2845 10.728 96.4445 10.6C96.6045 10.472 96.7272 10.32 96.8125 10.144C96.8978 9.968 96.9405 9.776 96.9405 9.568C96.9405 9.168 96.7725 8.84533 96.4365 8.6C96.1058 8.35467 95.6018 8.232 94.9245 8.232H94.0045V7.288H94.9245C95.2178 7.288 95.4818 7.25867 95.7165 7.2C95.9512 7.136 96.1512 7.05067 96.3165 6.944C96.4818 6.83733 96.6072 6.70933 96.6925 6.56C96.7778 6.40533 96.8205 6.24 96.8205 6.064C96.8205 5.904 96.7832 5.752 96.7085 5.608C96.6392 5.464 96.5298 5.33867 96.3805 5.232C96.2365 5.12533 96.0552 5.04 95.8365 4.976C95.6178 4.912 95.3618 4.88 95.0685 4.88C94.7485 4.88 94.4765 4.912 94.2525 4.976C94.0338 5.04 93.8472 5.10933 93.6925 5.184C93.5432 5.25867 93.4205 5.328 93.3245 5.392C93.2285 5.456 93.1458 5.488 93.0765 5.488C93.0072 5.488 92.9485 5.47467 92.9005 5.448C92.8578 5.42133 92.8098 5.36533 92.7565 5.28L92.4285 4.728ZM105.384 4.984H101.56V12H100.128V3.896H105.384V4.984ZM108.169 10.048C108.431 10.4 108.716 10.648 109.025 10.792C109.335 10.936 109.681 11.008 110.065 11.008C110.823 11.008 111.404 10.7387 111.809 10.2C112.215 9.66133 112.417 8.89333 112.417 7.896C112.417 7.368 112.369 6.91467 112.273 6.536C112.183 6.15733 112.049 5.848 111.873 5.608C111.697 5.36267 111.481 5.184 111.225 5.072C110.969 4.96 110.679 4.904 110.353 4.904C109.889 4.904 109.481 5.01067 109.129 5.224C108.783 5.43733 108.463 5.73867 108.169 6.128V10.048ZM108.097 5.152C108.439 4.73067 108.833 4.392 109.281 4.136C109.729 3.88 110.241 3.752 110.817 3.752C111.287 3.752 111.711 3.84267 112.089 4.024C112.468 4.2 112.791 4.464 113.057 4.816C113.324 5.16267 113.529 5.59467 113.673 6.112C113.817 6.62933 113.889 7.224 113.889 7.896C113.889 8.49333 113.809 9.05067 113.649 9.568C113.489 10.08 113.257 10.5253 112.953 10.904C112.655 11.2773 112.287 11.5733 111.849 11.792C111.417 12.0053 110.929 12.112 110.385 12.112C109.889 12.112 109.463 12.0293 109.105 11.864C108.753 11.6933 108.441 11.4587 108.169 11.16V14.744H106.737V3.896H107.593C107.796 3.896 107.921 3.99467 107.969 4.192L108.097 5.152ZM121.115 7.064C121.115 6.73333 121.067 6.432 120.971 6.16C120.88 5.88267 120.744 5.64533 120.563 5.448C120.387 5.24533 120.171 5.09067 119.915 4.984C119.659 4.872 119.368 4.816 119.043 4.816C118.36 4.816 117.819 5.016 117.419 5.416C117.024 5.81067 116.779 6.36 116.683 7.064H121.115ZM122.267 10.864C122.091 11.0773 121.88 11.264 121.635 11.424C121.389 11.5787 121.125 11.7067 120.843 11.808C120.565 11.9093 120.277 11.984 119.979 12.032C119.68 12.0853 119.384 12.112 119.091 12.112C118.531 12.112 118.013 12.0187 117.539 11.832C117.069 11.64 116.661 11.3627 116.315 11C115.973 10.632 115.707 10.1787 115.515 9.64C115.323 9.10133 115.227 8.48267 115.227 7.784C115.227 7.21867 115.312 6.69067 115.483 6.2C115.659 5.70933 115.909 5.28533 116.235 4.928C116.56 4.56533 116.957 4.28267 117.427 4.08C117.896 3.872 118.424 3.768 119.011 3.768C119.496 3.768 119.944 3.85067 120.355 4.016C120.771 4.176 121.128 4.41067 121.427 4.72C121.731 5.024 121.968 5.40267 122.139 5.856C122.309 6.304 122.395 6.816 122.395 7.392C122.395 7.616 122.371 7.76533 122.323 7.84C122.275 7.91467 122.184 7.952 122.051 7.952H116.635C116.651 8.464 116.72 8.90933 116.843 9.288C116.971 9.66667 117.147 9.984 117.371 10.24C117.595 10.4907 117.861 10.68 118.171 10.808C118.48 10.9307 118.827 10.992 119.211 10.992C119.568 10.992 119.875 10.952 120.131 10.872C120.392 10.7867 120.616 10.696 120.803 10.6C120.989 10.504 121.144 10.416 121.267 10.336C121.395 10.2507 121.504 10.208 121.595 10.208C121.712 10.208 121.803 10.2533 121.867 10.344L122.267 10.864ZM127.256 11C127.789 11 128.21 10.8773 128.52 10.632C128.829 10.3813 128.984 10.04 128.984 9.608C128.984 9.416 128.954 9.24267 128.896 9.088C128.837 8.928 128.741 8.78933 128.608 8.672C128.474 8.55467 128.296 8.464 128.072 8.4C127.853 8.336 127.584 8.304 127.264 8.304H125.512V11H127.256ZM125.512 4.856V7.4H127.072C127.306 7.4 127.522 7.368 127.72 7.304C127.922 7.23467 128.096 7.14133 128.24 7.024C128.384 6.90133 128.496 6.75733 128.576 6.592C128.656 6.42133 128.696 6.23467 128.696 6.032C128.696 5.88267 128.669 5.73867 128.616 5.6C128.562 5.456 128.472 5.33067 128.344 5.224C128.216 5.112 128.048 5.024 127.84 4.96C127.632 4.89067 127.376 4.856 127.072 4.856H125.512ZM127.112 3.896C127.613 3.896 128.042 3.94667 128.4 4.048C128.757 4.14933 129.05 4.288 129.28 4.464C129.509 4.63467 129.677 4.83733 129.784 5.072C129.89 5.30667 129.944 5.55733 129.944 5.824C129.944 6 129.92 6.184 129.872 6.376C129.824 6.568 129.738 6.752 129.616 6.928C129.498 7.104 129.336 7.264 129.128 7.408C128.925 7.54667 128.669 7.656 128.36 7.736C128.978 7.84267 129.456 8.05867 129.792 8.384C130.128 8.704 130.296 9.128 130.296 9.656C130.296 10.0507 130.216 10.3947 130.056 10.688C129.901 10.976 129.685 11.2187 129.408 11.416C129.136 11.6133 128.816 11.76 128.448 11.856C128.08 11.952 127.685 12 127.264 12H124.144V3.896H127.112ZM131.993 13.936C131.95 13.8987 131.921 13.864 131.905 13.832C131.889 13.8 131.881 13.76 131.881 13.712C131.881 13.6747 131.892 13.6373 131.913 13.6C131.94 13.5627 131.969 13.528 132.001 13.496C132.054 13.4373 132.121 13.36 132.201 13.264C132.286 13.168 132.372 13.0533 132.457 12.92C132.542 12.792 132.62 12.648 132.689 12.488C132.764 12.3333 132.817 12.168 132.849 11.992C132.833 11.9973 132.814 12 132.793 12C132.777 12 132.761 12 132.745 12C132.468 12 132.241 11.9093 132.065 11.728C131.894 11.5413 131.809 11.304 131.809 11.016C131.809 10.7653 131.894 10.552 132.065 10.376C132.241 10.2 132.473 10.112 132.761 10.112C132.921 10.112 133.062 10.1413 133.185 10.2C133.308 10.2587 133.409 10.3413 133.489 10.448C133.574 10.5493 133.638 10.6693 133.681 10.808C133.724 10.9413 133.745 11.088 133.745 11.248C133.745 11.488 133.71 11.7387 133.641 12C133.577 12.256 133.478 12.5093 133.345 12.76C133.217 13.016 133.06 13.264 132.873 13.504C132.686 13.744 132.473 13.9653 132.233 14.168L131.993 13.936ZM146.792 3.896L142.272 14.392C142.224 14.4987 142.163 14.584 142.088 14.648C142.019 14.712 141.909 14.744 141.76 14.744H140.704L142.184 11.528L138.84 3.896H140.072C140.195 3.896 140.291 3.928 140.36 3.992C140.435 4.05067 140.485 4.11733 140.512 4.192L142.68 9.296C142.765 9.52 142.837 9.75467 142.896 10C142.971 9.74933 143.051 9.512 143.136 9.288L145.24 4.192C145.272 4.10667 145.325 4.03733 145.4 3.984C145.48 3.92533 145.568 3.896 145.664 3.896H146.792ZM154.42 12H152.996V5.016H150.436C150.372 6.04533 150.276 6.936 150.148 7.688C150.02 8.43467 149.865 9.072 149.684 9.6C149.508 10.1227 149.308 10.5493 149.084 10.88C148.865 11.2053 148.633 11.4587 148.388 11.64C148.148 11.8213 147.897 11.944 147.636 12.008C147.38 12.072 147.124 12.104 146.868 12.104C146.414 12.104 146.188 12.032 146.188 11.888V10.984H146.604C146.785 10.984 146.969 10.952 147.156 10.888C147.342 10.824 147.524 10.7013 147.7 10.52C147.881 10.3387 148.054 10.0853 148.22 9.76C148.385 9.42933 148.534 9.00267 148.668 8.48C148.806 7.952 148.924 7.31467 149.02 6.568C149.121 5.816 149.198 4.92533 149.252 3.896H154.42V12ZM156.435 11.12C156.435 10.9813 156.459 10.8507 156.507 10.728C156.56 10.6053 156.63 10.4987 156.715 10.408C156.806 10.3173 156.912 10.2453 157.035 10.192C157.158 10.1387 157.288 10.112 157.427 10.112C157.566 10.112 157.696 10.1387 157.819 10.192C157.942 10.2453 158.048 10.3173 158.139 10.408C158.23 10.4987 158.302 10.6053 158.355 10.728C158.408 10.8507 158.435 10.9813 158.435 11.12C158.435 11.264 158.408 11.3973 158.355 11.52C158.302 11.6373 158.23 11.7413 158.139 11.832C158.048 11.9227 157.942 11.992 157.819 12.04C157.696 12.0933 157.566 12.12 157.427 12.12C157.288 12.12 157.158 12.0933 157.035 12.04C156.912 11.992 156.806 11.9227 156.715 11.832C156.63 11.7413 156.56 11.6373 156.507 11.52C156.459 11.3973 156.435 11.264 156.435 11.12ZM2.256 20.536V22.856L2.128 24.096C2.10133 24.2667 2.05067 24.4 1.976 24.496C1.90667 24.5867 1.792 24.632 1.632 24.632C1.488 24.632 1.376 24.5867 1.296 24.496C1.22133 24.4 1.17067 24.2667 1.144 24.096L1.016 22.856V20.536H2.256ZM4.92 20.536V22.856L4.792 24.096C4.76533 24.2667 4.71467 24.4 4.64 24.496C4.57067 24.5867 4.456 24.632 4.296 24.632C4.152 24.632 4.04 24.5867 3.96 24.496C3.88533 24.4 3.83467 24.2667 3.808 24.096L3.68 22.856V20.536H4.92ZM15.1379 21.84H11.4259V32H9.88188V21.84H6.16188V20.536H15.1379V21.84ZM21.6894 23.896V32H20.2654V26.496C20.2654 26.3893 20.2707 26.2747 20.2814 26.152C20.292 26.0293 20.3054 25.9067 20.3214 25.784C20.2734 25.8907 20.2254 25.9893 20.1774 26.08C20.1294 26.1707 20.0787 26.2533 20.0254 26.328L16.1134 31.648C16.0547 31.7333 15.98 31.816 15.8894 31.896C15.804 31.9707 15.708 32.008 15.6014 32.008H14.7374V23.904H16.1694V29.408C16.1694 29.5093 16.164 29.6213 16.1534 29.744C16.1427 29.8613 16.1294 29.9813 16.1134 30.104C16.1614 30.0027 16.2094 29.9093 16.2574 29.824C16.3054 29.7333 16.3534 29.6507 16.4014 29.576L20.3134 24.256C20.372 24.1707 20.4467 24.0907 20.5374 24.016C20.628 23.936 20.7267 23.896 20.8334 23.896H21.6894ZM30.6925 23.896V32H29.2605V28.208H25.3725V32H23.9405V23.896H25.3725V27.128H29.2605V23.896H30.6925ZM39.6921 24.984H36.5801V32H35.1561V24.984H32.0441V23.896H39.6921V24.984ZM44.9545 27.68V24.856H43.5945C43.2905 24.856 43.0345 24.9013 42.8265 24.992C42.6185 25.0773 42.4505 25.1893 42.3225 25.328C42.1998 25.4613 42.1118 25.6133 42.0585 25.784C42.0052 25.9493 41.9785 26.1147 41.9785 26.28C41.9785 26.7173 42.1385 27.0613 42.4585 27.312C42.7785 27.5573 43.2158 27.68 43.7705 27.68H44.9545ZM46.3145 23.896V32H44.9545V28.584H44.3305C44.1812 28.584 44.0558 28.5973 43.9545 28.624C43.8585 28.6453 43.7732 28.6773 43.6985 28.72C43.6292 28.7627 43.5678 28.8187 43.5145 28.888C43.4612 28.952 43.4052 29.0267 43.3465 29.112L41.5705 31.504C41.4798 31.6747 41.3678 31.8 41.2345 31.88C41.1065 31.96 40.9172 32 40.6665 32H39.6745L42.0265 28.944C42.2185 28.624 42.4718 28.4107 42.7865 28.304C42.3758 28.2507 42.0292 28.1547 41.7465 28.016C41.4638 27.8773 41.2318 27.7147 41.0505 27.528C40.8745 27.336 40.7465 27.1253 40.6665 26.896C40.5865 26.6667 40.5465 26.4347 40.5465 26.2C40.5465 25.9227 40.5998 25.6453 40.7065 25.368C40.8185 25.0907 40.9945 24.8453 41.2345 24.632C41.4745 24.4133 41.7838 24.2373 42.1625 24.104C42.5465 23.9653 43.0105 23.896 43.5545 23.896H46.3145ZM51.6931 31C52.2265 31 52.6478 30.8773 52.9571 30.632C53.2665 30.3813 53.4211 30.04 53.4211 29.608C53.4211 29.416 53.3918 29.2427 53.3331 29.088C53.2745 28.928 53.1785 28.7893 53.0451 28.672C52.9118 28.5547 52.7331 28.464 52.5091 28.4C52.2905 28.336 52.0211 28.304 51.7011 28.304H49.9491V31H51.6931ZM49.9491 24.856V27.4H51.5091C51.7438 27.4 51.9598 27.368 52.1571 27.304C52.3598 27.2347 52.5331 27.1413 52.6771 27.024C52.8211 26.9013 52.9331 26.7573 53.0131 26.592C53.0931 26.4213 53.1331 26.2347 53.1331 26.032C53.1331 25.8827 53.1065 25.7387 53.0531 25.6C52.9998 25.456 52.9091 25.3307 52.7811 25.224C52.6531 25.112 52.4851 25.024 52.2771 24.96C52.0691 24.8907 51.8131 24.856 51.5091 24.856H49.9491ZM51.5491 23.896C52.0505 23.896 52.4798 23.9467 52.8371 24.048C53.1945 24.1493 53.4878 24.288 53.7171 24.464C53.9465 24.6347 54.1145 24.8373 54.2211 25.072C54.3278 25.3067 54.3811 25.5573 54.3811 25.824C54.3811 26 54.3571 26.184 54.3091 26.376C54.2611 26.568 54.1758 26.752 54.0531 26.928C53.9358 27.104 53.7731 27.264 53.5651 27.408C53.3625 27.5467 53.1065 27.656 52.7971 27.736C53.4158 27.8427 53.8931 28.0587 54.2291 28.384C54.5651 28.704 54.7331 29.128 54.7331 29.656C54.7331 30.0507 54.6531 30.3947 54.4931 30.688C54.3385 30.976 54.1225 31.2187 53.8451 31.416C53.5731 31.6133 53.2531 31.76 52.8851 31.856C52.5171 31.952 52.1225 32 51.7011 32H48.5811V23.896H51.5491ZM60.9106 28.352C60.2546 28.3733 59.6946 28.4267 59.2306 28.512C58.772 28.592 58.396 28.6987 58.1026 28.832C57.8146 28.9653 57.604 29.1227 57.4706 29.304C57.3426 29.4853 57.2786 29.688 57.2786 29.912C57.2786 30.1253 57.3133 30.3093 57.3826 30.464C57.452 30.6187 57.5453 30.7467 57.6626 30.848C57.7853 30.944 57.9266 31.016 58.0866 31.064C58.252 31.1067 58.428 31.128 58.6146 31.128C58.8653 31.128 59.0946 31.104 59.3026 31.056C59.5106 31.0027 59.7053 30.928 59.8866 30.832C60.0733 30.736 60.2493 30.6213 60.4146 30.488C60.5853 30.3547 60.7506 30.2027 60.9106 30.032V28.352ZM56.3106 25.04C56.7586 24.608 57.2413 24.2853 57.7586 24.072C58.276 23.8587 58.8493 23.752 59.4786 23.752C59.932 23.752 60.3346 23.8267 60.6866 23.976C61.0386 24.1253 61.3346 24.3333 61.5746 24.6C61.8146 24.8667 61.996 25.1893 62.1186 25.568C62.2413 25.9467 62.3026 26.3627 62.3026 26.816V32H61.6706C61.532 32 61.4253 31.9787 61.3506 31.936C61.276 31.888 61.2173 31.7973 61.1746 31.664L61.0146 30.896C60.8013 31.0933 60.5933 31.2693 60.3906 31.424C60.188 31.5733 59.9746 31.7013 59.7506 31.808C59.5266 31.9093 59.2866 31.9867 59.0306 32.04C58.78 32.0987 58.5 32.128 58.1906 32.128C57.876 32.128 57.58 32.0853 57.3026 32C57.0253 31.9093 56.7826 31.776 56.5746 31.6C56.372 31.424 56.2093 31.2027 56.0866 30.936C55.9693 30.664 55.9106 30.344 55.9106 29.976C55.9106 29.656 55.9986 29.3493 56.1746 29.056C56.3506 28.7573 56.636 28.4933 57.0306 28.264C57.4253 28.0347 57.94 27.848 58.5746 27.704C59.2093 27.5547 59.988 27.4693 60.9106 27.448V26.816C60.9106 26.1867 60.7746 25.712 60.5026 25.392C60.2306 25.0667 59.8333 24.904 59.3106 24.904C58.9586 24.904 58.6626 24.9493 58.4226 25.04C58.188 25.1253 57.9826 25.224 57.8066 25.336C57.636 25.4427 57.4866 25.5413 57.3586 25.632C57.236 25.7173 57.1133 25.76 56.9906 25.76C56.8946 25.76 56.812 25.736 56.7426 25.688C56.6733 25.6347 56.6146 25.5707 56.5666 25.496L56.3106 25.04ZM65.4279 20.536V22.856L65.2999 24.096C65.2732 24.2667 65.2225 24.4 65.1479 24.496C65.0785 24.5867 64.9639 24.632 64.8039 24.632C64.6599 24.632 64.5479 24.5867 64.4679 24.496C64.3932 24.4 64.3425 24.2667 64.3159 24.096L64.1879 22.856V20.536H65.4279ZM68.0919 20.536V22.856L67.9639 24.096C67.9372 24.2667 67.8865 24.4 67.8119 24.496C67.7425 24.5867 67.6279 24.632 67.4679 24.632C67.3239 24.632 67.2119 24.5867 67.1319 24.496C67.0572 24.4 67.0065 24.2667 66.9799 24.096L66.8519 22.856V20.536H68.0919ZM81.3315 30.912V32H75.1875V30.912H77.6435V23.096C77.6435 22.8613 77.6515 22.624 77.6675 22.384L75.6275 24.136C75.5582 24.1947 75.4888 24.232 75.4195 24.248C75.3502 24.2587 75.2862 24.2587 75.2275 24.248C75.1688 24.2373 75.1128 24.216 75.0595 24.184C75.0115 24.152 74.9742 24.1173 74.9475 24.08L74.4995 23.464L77.9155 20.512H79.0755V30.912H81.3315ZM85.3648 24.864C85.9621 24.736 86.5114 24.672 87.0128 24.672C87.6101 24.672 88.1381 24.76 88.5968 24.936C89.0554 25.112 89.4368 25.3547 89.7408 25.664C90.0501 25.9733 90.2821 26.3387 90.4368 26.76C90.5968 27.1813 90.6768 27.64 90.6768 28.136C90.6768 28.744 90.5701 29.2933 90.3568 29.784C90.1488 30.2747 89.8581 30.696 89.4848 31.048C89.1168 31.3947 88.6821 31.6613 88.1808 31.848C87.6794 32.0347 87.1381 32.128 86.5568 32.128C86.2208 32.128 85.8981 32.0933 85.5888 32.024C85.2794 31.96 84.9888 31.872 84.7168 31.76C84.4501 31.648 84.2021 31.52 83.9728 31.376C83.7434 31.232 83.5408 31.08 83.3648 30.92L83.8048 30.312C83.9008 30.1733 84.0261 30.104 84.1808 30.104C84.2874 30.104 84.4074 30.1467 84.5408 30.232C84.6741 30.312 84.8368 30.4027 85.0288 30.504C85.2208 30.6053 85.4448 30.6987 85.7008 30.784C85.9621 30.864 86.2714 30.904 86.6288 30.904C87.0288 30.904 87.3888 30.84 87.7088 30.712C88.0288 30.584 88.3034 30.4027 88.5328 30.168C88.7621 29.928 88.9381 29.6427 89.0608 29.312C89.1834 28.9813 89.2448 28.6107 89.2448 28.2C89.2448 27.8427 89.1914 27.52 89.0848 27.232C88.9834 26.944 88.8261 26.6987 88.6128 26.496C88.4048 26.2933 88.1434 26.136 87.8288 26.024C87.5141 25.912 87.1461 25.856 86.7248 25.856C86.4368 25.856 86.1354 25.88 85.8208 25.928C85.5114 25.976 85.1941 26.0533 84.8688 26.16L83.9728 25.896L84.8928 20.536H90.3248V21.16C90.3248 21.3627 90.2608 21.5307 90.1328 21.664C90.0101 21.792 89.7968 21.856 89.4928 21.856H85.8928L85.3648 24.864ZM92.75 26.6H96.702V27.808H92.75V26.6ZM105.832 30.912V32H99.6875V30.912H102.144V23.096C102.144 22.8613 102.152 22.624 102.168 22.384L100.128 24.136C100.058 24.1947 99.9888 24.232 99.9195 24.248C99.8502 24.2587 99.7862 24.2587 99.7275 24.248C99.6688 24.2373 99.6128 24.216 99.5595 24.184C99.5115 24.152 99.4742 24.1173 99.4475 24.08L98.9995 23.464L102.416 20.512H103.576V30.912H105.832ZM115.617 20.536V21.176C115.617 21.3573 115.595 21.5067 115.553 21.624C115.515 21.7413 115.478 21.84 115.441 21.92L110.689 31.496C110.619 31.6347 110.523 31.7547 110.401 31.856C110.278 31.952 110.115 32 109.913 32H108.889L113.705 22.544C113.774 22.4107 113.846 22.288 113.921 22.176C113.995 22.064 114.075 21.9573 114.161 21.856H108.177C108.086 21.856 108.006 21.8213 107.937 21.752C107.867 21.6773 107.833 21.5947 107.833 21.504V20.536H115.617ZM117.29 33.936C117.247 33.8987 117.218 33.864 117.202 33.832C117.186 33.8 117.178 33.76 117.178 33.712C117.178 33.6747 117.189 33.6373 117.21 33.6C117.237 33.5627 117.266 33.528 117.298 33.496C117.351 33.4373 117.418 33.36 117.498 33.264C117.583 33.168 117.669 33.0533 117.754 32.92C117.839 32.792 117.917 32.648 117.986 32.488C118.061 32.3333 118.114 32.168 118.146 31.992C118.13 31.9973 118.111 32 118.09 32C118.074 32 118.058 32 118.042 32C117.765 32 117.538 31.9093 117.362 31.728C117.191 31.5413 117.106 31.304 117.106 31.016C117.106 30.7653 117.191 30.552 117.362 30.376C117.538 30.2 117.77 30.112 118.058 30.112C118.218 30.112 118.359 30.1413 118.482 30.2C118.605 30.2587 118.706 30.3413 118.786 30.448C118.871 30.5493 118.935 30.6693 118.978 30.808C119.021 30.9413 119.042 31.088 119.042 31.248C119.042 31.488 119.007 31.7387 118.938 32C118.874 32.256 118.775 32.5093 118.642 32.76C118.514 33.016 118.357 33.264 118.17 33.504C117.983 33.744 117.77 33.9653 117.53 34.168L117.29 33.936ZM130.521 27.064C130.521 26.7333 130.473 26.432 130.377 26.16C130.286 25.8827 130.15 25.6453 129.969 25.448C129.793 25.2453 129.577 25.0907 129.321 24.984C129.065 24.872 128.774 24.816 128.449 24.816C127.766 24.816 127.225 25.016 126.825 25.416C126.43 25.8107 126.185 26.36 126.089 27.064H130.521ZM131.673 30.864C131.497 31.0773 131.286 31.264 131.041 31.424C130.795 31.5787 130.531 31.7067 130.249 31.808C129.971 31.9093 129.683 31.984 129.385 32.032C129.086 32.0853 128.79 32.112 128.497 32.112C127.937 32.112 127.419 32.0187 126.945 31.832C126.475 31.64 126.067 31.3627 125.721 31C125.379 30.632 125.113 30.1787 124.921 29.64C124.729 29.1013 124.633 28.4827 124.633 27.784C124.633 27.2187 124.718 26.6907 124.889 26.2C125.065 25.7093 125.315 25.2853 125.641 24.928C125.966 24.5653 126.363 24.2827 126.833 24.08C127.302 23.872 127.83 23.768 128.417 23.768C128.902 23.768 129.35 23.8507 129.761 24.016C130.177 24.176 130.534 24.4107 130.833 24.72C131.137 25.024 131.374 25.4027 131.545 25.856C131.715 26.304 131.801 26.816 131.801 27.392C131.801 27.616 131.777 27.7653 131.729 27.84C131.681 27.9147 131.59 27.952 131.457 27.952H126.041C126.057 28.464 126.126 28.9093 126.249 29.288C126.377 29.6667 126.553 29.984 126.777 30.24C127.001 30.4907 127.267 30.68 127.577 30.808C127.886 30.9307 128.233 30.992 128.617 30.992C128.974 30.992 129.281 30.952 129.537 30.872C129.798 30.7867 130.022 30.696 130.209 30.6C130.395 30.504 130.55 30.416 130.673 30.336C130.801 30.2507 130.91 30.208 131.001 30.208C131.118 30.208 131.209 30.2533 131.273 30.344L131.673 30.864ZM140.161 24.984H137.049V32H135.625V24.984H132.513V23.896H140.161V24.984ZM145.833 28.352C145.177 28.3733 144.617 28.4267 144.153 28.512C143.694 28.592 143.318 28.6987 143.025 28.832C142.737 28.9653 142.526 29.1227 142.393 29.304C142.265 29.4853 142.201 29.688 142.201 29.912C142.201 30.1253 142.235 30.3093 142.305 30.464C142.374 30.6187 142.467 30.7467 142.585 30.848C142.707 30.944 142.849 31.016 143.009 31.064C143.174 31.1067 143.35 31.128 143.537 31.128C143.787 31.128 144.017 31.104 144.225 31.056C144.433 31.0027 144.627 30.928 144.809 30.832C144.995 30.736 145.171 30.6213 145.337 30.488C145.507 30.3547 145.673 30.2027 145.833 30.032V28.352ZM141.233 25.04C141.681 24.608 142.163 24.2853 142.681 24.072C143.198 23.8587 143.771 23.752 144.401 23.752C144.854 23.752 145.257 23.8267 145.609 23.976C145.961 24.1253 146.257 24.3333 146.497 24.6C146.737 24.8667 146.918 25.1893 147.041 25.568C147.163 25.9467 147.225 26.3627 147.225 26.816V32H146.593C146.454 32 146.347 31.9787 146.273 31.936C146.198 31.888 146.139 31.7973 146.097 31.664L145.937 30.896C145.723 31.0933 145.515 31.2693 145.312 31.424C145.11 31.5733 144.897 31.7013 144.673 31.808C144.449 31.9093 144.209 31.9867 143.953 32.04C143.702 32.0987 143.422 32.128 143.113 32.128C142.798 32.128 142.502 32.0853 142.225 32C141.947 31.9093 141.705 31.776 141.497 31.6C141.294 31.424 141.131 31.2027 141.009 30.936C140.891 30.664 140.833 30.344 140.833 29.976C140.833 29.656 140.921 29.3493 141.097 29.056C141.273 28.7573 141.558 28.4933 141.953 28.264C142.347 28.0347 142.862 27.848 143.497 27.704C144.131 27.5547 144.91 27.4693 145.833 27.448V26.816C145.833 26.1867 145.697 25.712 145.425 25.392C145.153 25.0667 144.755 24.904 144.233 24.904C143.881 24.904 143.585 24.9493 143.345 25.04C143.11 25.1253 142.905 25.224 142.729 25.336C142.558 25.4427 142.409 25.5413 142.281 25.632C142.158 25.7173 142.035 25.76 141.913 25.76C141.817 25.76 141.734 25.736 141.665 25.688C141.595 25.6347 141.537 25.5707 141.488 25.496L141.233 25.04ZM160.674 32H159.682C159.426 32 159.228 31.96 159.09 31.88C158.956 31.8 158.852 31.6747 158.778 31.504L157.202 28.984C156.94 28.568 156.564 28.36 156.074 28.36H155.258V32.008H153.874V28.36H153.066C152.826 28.36 152.607 28.4133 152.41 28.52C152.218 28.6267 152.06 28.7813 151.938 28.984L150.362 31.504C150.282 31.6747 150.172 31.8 150.034 31.88C149.9 31.96 149.706 32 149.45 32H148.466L150.594 28.648C150.732 28.4133 150.89 28.224 151.066 28.08C151.242 27.936 151.458 27.8267 151.714 27.752C151.511 27.688 151.338 27.5947 151.194 27.472C151.055 27.344 150.924 27.1813 150.802 26.984L148.69 23.896H149.81C149.948 23.896 150.074 23.9333 150.186 24.008C150.298 24.0773 150.386 24.1733 150.45 24.296L152.17 26.856C152.287 27.032 152.428 27.168 152.594 27.264C152.759 27.3547 152.954 27.4 153.178 27.4H153.874V23.896H155.258V27.4H155.938C156.391 27.4 156.732 27.2187 156.962 26.856L158.682 24.296C158.746 24.1733 158.834 24.0773 158.946 24.008C159.063 23.9333 159.191 23.896 159.33 23.896H160.45L158.338 26.984C158.215 27.1813 158.082 27.344 157.938 27.472C157.799 27.5947 157.628 27.688 157.426 27.752C157.682 27.8267 157.898 27.936 158.074 28.08C158.25 28.224 158.407 28.4133 158.546 28.648L160.674 32ZM173.113 30.912V32H166.969V30.912H169.425V23.096C169.425 22.8613 169.433 22.624 169.449 22.384L167.409 24.136C167.339 24.1947 167.27 24.232 167.201 24.248C167.131 24.2587 167.067 24.2587 167.009 24.248C166.95 24.2373 166.894 24.216 166.841 24.184C166.793 24.152 166.755 24.1173 166.729 24.08L166.281 23.464L169.697 20.512H170.857V30.912H173.113ZM175.29 33.936C175.247 33.8987 175.218 33.864 175.202 33.832C175.186 33.8 175.178 33.76 175.178 33.712C175.178 33.6747 175.189 33.6373 175.21 33.6C175.237 33.5627 175.266 33.528 175.298 33.496C175.351 33.4373 175.418 33.36 175.498 33.264C175.583 33.168 175.669 33.0533 175.754 32.92C175.839 32.792 175.917 32.648 175.986 32.488C176.061 32.3333 176.114 32.168 176.146 31.992C176.13 31.9973 176.111 32 176.09 32C176.074 32 176.058 32 176.042 32C175.765 32 175.538 31.9093 175.362 31.728C175.191 31.5413 175.106 31.304 175.106 31.016C175.106 30.7653 175.191 30.552 175.362 30.376C175.538 30.2 175.77 30.112 176.058 30.112C176.218 30.112 176.359 30.1413 176.482 30.2C176.605 30.2587 176.706 30.3413 176.786 30.448C176.871 30.5493 176.935 30.6693 176.978 30.808C177.021 30.9413 177.042 31.088 177.042 31.248C177.042 31.488 177.007 31.7387 176.938 32C176.874 32.256 176.775 32.5093 176.642 32.76C176.514 33.016 176.357 33.264 176.17 33.504C175.983 33.744 175.77 33.9653 175.53 34.168L175.29 33.936ZM10.304 52H8.744V41.76H3.016V52H1.464V40.536H10.304V52ZM22.3816 52H20.9896C20.835 52 20.7016 51.96 20.5896 51.88C20.483 51.7947 20.3816 51.672 20.2856 51.512L17.2536 47.312C17.115 47.104 16.9656 46.96 16.8056 46.88C16.6456 46.7947 16.427 46.752 16.1496 46.752H14.7736V52H13.2296V40.536H14.7736V45.56H15.9656C16.2056 45.56 16.4083 45.5227 16.5736 45.448C16.7443 45.3733 16.9123 45.2267 17.0776 45.008L20.0776 40.976C20.1576 40.848 20.2536 40.744 20.3656 40.664C20.483 40.5787 20.619 40.536 20.7736 40.536H22.0776L18.6136 45.248C18.3523 45.616 18.0163 45.8693 17.6056 46.008C17.8883 46.0827 18.1256 46.2027 18.3176 46.368C18.515 46.528 18.7016 46.752 18.8776 47.04L22.3816 52ZM23.5 51.12C23.5 50.9813 23.524 50.8507 23.572 50.728C23.6253 50.6053 23.6947 50.4987 23.78 50.408C23.8707 50.3173 23.9773 50.2453 24.1 50.192C24.2227 50.1387 24.3533 50.112 24.492 50.112C24.6307 50.112 24.7613 50.1387 24.884 50.192C25.0067 50.2453 25.1133 50.3173 25.204 50.408C25.2947 50.4987 25.3667 50.6053 25.42 50.728C25.4733 50.8507 25.5 50.9813 25.5 51.12C25.5 51.264 25.4733 51.3973 25.42 51.52C25.3667 51.6373 25.2947 51.7413 25.204 51.832C25.1133 51.9227 25.0067 51.992 24.884 52.04C24.7613 52.0933 24.6307 52.12 24.492 52.12C24.3533 52.12 24.2227 52.0933 24.1 52.04C23.9773 51.992 23.8707 51.9227 23.78 51.832C23.6947 51.7413 23.6253 51.6373 23.572 51.52C23.524 51.3973 23.5 51.264 23.5 51.12ZM23.5 45.12C23.5 44.9813 23.524 44.8507 23.572 44.728C23.6253 44.6053 23.6947 44.4987 23.78 44.408C23.8707 44.3173 23.9773 44.2453 24.1 44.192C24.2227 44.1387 24.3533 44.112 24.492 44.112C24.6307 44.112 24.7613 44.1387 24.884 44.192C25.0067 44.2453 25.1133 44.3173 25.204 44.408C25.2947 44.4987 25.3667 44.6053 25.42 44.728C25.4733 44.8507 25.5 44.9813 25.5 45.12C25.5 45.264 25.4733 45.3973 25.42 45.52C25.3667 45.6373 25.2947 45.7413 25.204 45.832C25.1133 45.9227 25.0067 45.9947 24.884 46.048C24.7613 46.096 24.6307 46.12 24.492 46.12C24.3533 46.12 24.2227 46.096 24.1 46.048C23.9773 45.9947 23.8707 45.9227 23.78 45.832C23.6947 45.7413 23.6253 45.6373 23.572 45.52C23.524 45.3973 23.5 45.264 23.5 45.12ZM38.7378 50.912V52H32.5938V50.912H35.0498V43.096C35.0498 42.8613 35.0578 42.624 35.0738 42.384L33.0338 44.136C32.9644 44.1947 32.8951 44.232 32.8258 44.248C32.7564 44.2587 32.6924 44.2587 32.6338 44.248C32.5751 44.2373 32.5191 44.216 32.4658 44.184C32.4178 44.152 32.3804 44.1173 32.3538 44.08L31.9058 43.464L35.3218 40.512H36.4818V50.912H38.7378ZM48.019 50.912V52H41.875V50.912H44.331V43.096C44.331 42.8613 44.339 42.624 44.355 42.384L42.315 44.136C42.2457 44.1947 42.1763 44.232 42.107 44.248C42.0377 44.2587 41.9737 44.2587 41.915 44.248C41.8563 44.2373 41.8003 44.216 41.747 44.184C41.699 44.152 41.6617 44.1173 41.635 44.08L41.187 43.464L44.603 40.512H45.763V50.912H48.019ZM57.3003 50.912V52H51.1562V50.912H53.6123V43.096C53.6123 42.8613 53.6203 42.624 53.6363 42.384L51.5963 44.136C51.5269 44.1947 51.4576 44.232 51.3883 44.248C51.3189 44.2587 51.2549 44.2587 51.1963 44.248C51.1376 44.2373 51.0816 44.216 51.0283 44.184C50.9803 44.152 50.9429 44.1173 50.9163 44.08L50.4683 43.464L53.8843 40.512H55.0443V50.912H57.3003ZM59.4775 43.64C59.5522 43.1173 59.6962 42.656 59.9095 42.256C60.1228 41.8507 60.3922 41.512 60.7175 41.24C61.0482 40.968 61.4242 40.7627 61.8455 40.624C62.2722 40.48 62.7308 40.408 63.2215 40.408C63.7068 40.408 64.1548 40.4773 64.5655 40.616C64.9762 40.7547 65.3282 40.952 65.6215 41.208C65.9202 41.464 66.1522 41.7733 66.3175 42.136C66.4828 42.4987 66.5655 42.9013 66.5655 43.344C66.5655 43.7067 66.5175 44.032 66.4215 44.32C66.3308 44.6027 66.1975 44.8507 66.0215 45.064C65.8508 45.2773 65.6428 45.4587 65.3975 45.608C65.1522 45.7573 64.8775 45.88 64.5735 45.976C65.3202 46.168 65.8802 46.4987 66.2535 46.968C66.6322 47.432 66.8215 48.0133 66.8215 48.712C66.8215 49.24 66.7202 49.7147 66.5175 50.136C66.3202 50.5573 66.0482 50.9173 65.7015 51.216C65.3548 51.5093 64.9495 51.736 64.4855 51.896C64.0268 52.0507 63.5335 52.128 63.0055 52.128C62.3975 52.128 61.8775 52.0533 61.4455 51.904C61.0135 51.7493 60.6482 51.5387 60.3495 51.272C60.0508 51.0053 59.8055 50.6907 59.6135 50.328C59.4215 49.96 59.2588 49.5627 59.1255 49.136L59.7415 48.88C59.9015 48.8107 60.0562 48.792 60.2055 48.824C60.3602 48.856 60.4722 48.944 60.5415 49.088C60.6108 49.2373 60.6962 49.416 60.7975 49.624C60.9042 49.832 61.0482 50.032 61.2295 50.224C61.4108 50.416 61.6402 50.5787 61.9175 50.712C62.2002 50.8453 62.5575 50.912 62.9895 50.912C63.3895 50.912 63.7388 50.848 64.0375 50.72C64.3415 50.5867 64.5922 50.416 64.7895 50.208C64.9922 50 65.1442 49.768 65.2455 49.512C65.3468 49.256 65.3975 49.0027 65.3975 48.752C65.3975 48.4427 65.3575 48.16 65.2775 47.904C65.1975 47.648 65.0482 47.4267 64.8295 47.24C64.6108 47.0533 64.3095 46.9067 63.9255 46.8C63.5468 46.6933 63.0588 46.64 62.4615 46.64V45.608C62.9522 45.6027 63.3682 45.5493 63.7095 45.448C64.0562 45.3467 64.3362 45.208 64.5495 45.032C64.7682 44.856 64.9255 44.6453 65.0215 44.4C65.1228 44.1547 65.1735 43.8827 65.1735 43.584C65.1735 43.2533 65.1202 42.9653 65.0135 42.72C64.9122 42.4747 64.7708 42.272 64.5895 42.112C64.4082 41.952 64.1922 41.832 63.9415 41.752C63.6962 41.672 63.4295 41.632 63.1415 41.632C62.8535 41.632 62.5842 41.6747 62.3335 41.76C62.0882 41.8453 61.8695 41.9653 61.6775 42.12C61.4908 42.2693 61.3335 42.448 61.2055 42.656C61.0775 42.864 60.9868 43.0933 60.9335 43.344C60.8642 43.5307 60.7762 43.656 60.6695 43.72C60.5682 43.7787 60.4188 43.7947 60.2215 43.768L59.4775 43.64Z" fill="#565656"/>
</svg>
