<svg width="66" height="35" viewBox="0 0 66 35" fill="none" xmlns="http://www.w3.org/2000/svg">
<path d="M9.512 9.632C9.59733 9.632 9.672 9.66667 9.736 9.736L10.352 10.4C9.88267 10.944 9.312 11.368 8.64 11.672C7.97333 11.976 7.16533 12.128 6.216 12.128C5.39467 12.128 4.648 11.9867 3.976 11.704C3.304 11.416 2.73067 11.016 2.256 10.504C1.78133 9.98667 1.41333 9.368 1.152 8.648C0.890667 7.928 0.76 7.136 0.76 6.272C0.76 5.408 0.896 4.616 1.168 3.896C1.44 3.176 1.82133 2.55733 2.312 2.04C2.808 1.52267 3.4 1.12267 4.088 0.839999C4.776 0.551999 5.536 0.407999 6.368 0.407999C7.184 0.407999 7.904 0.538666 8.528 0.799999C9.152 1.06133 9.70133 1.416 10.176 1.864L9.664 2.576C9.632 2.62933 9.58933 2.67467 9.536 2.712C9.488 2.744 9.42133 2.76 9.336 2.76C9.24 2.76 9.12267 2.70933 8.984 2.608C8.84533 2.50133 8.664 2.384 8.44 2.256C8.216 2.128 7.936 2.01333 7.6 1.912C7.264 1.80533 6.85067 1.752 6.36 1.752C5.768 1.752 5.22667 1.856 4.736 2.064C4.24533 2.26667 3.82133 2.56267 3.464 2.952C3.112 3.34133 2.83733 3.816 2.64 4.376C2.44267 4.936 2.344 5.568 2.344 6.272C2.344 6.98667 2.44533 7.624 2.648 8.184C2.856 8.744 3.136 9.21867 3.488 9.608C3.84533 9.992 4.264 10.2853 4.744 10.488C5.22933 10.6907 5.752 10.792 6.312 10.792C6.65333 10.792 6.96 10.7733 7.232 10.736C7.50933 10.6933 7.76267 10.6293 7.992 10.544C8.22667 10.4587 8.44267 10.352 8.64 10.224C8.84267 10.0907 9.04267 9.93333 9.24 9.752C9.33067 9.672 9.42133 9.632 9.512 9.632ZM16.3106 10.96C16.5986 10.96 16.8466 10.9253 17.0546 10.856C17.268 10.7813 17.444 10.68 17.5826 10.552C17.7266 10.4187 17.8333 10.264 17.9026 10.088C17.972 9.912 18.0066 9.72 18.0066 9.512C18.0066 9.32 17.9746 9.14133 17.9106 8.976C17.852 8.80533 17.7533 8.656 17.6146 8.528C17.4813 8.4 17.3053 8.29867 17.0866 8.224C16.8733 8.14933 16.6093 8.112 16.2946 8.112H14.5666V10.96H16.3106ZM16.2866 7.072C16.8466 7.072 17.316 7.13867 17.6946 7.272C18.0786 7.40533 18.388 7.584 18.6226 7.808C18.8573 8.032 19.0253 8.29067 19.1266 8.584C19.228 8.87733 19.2786 9.18133 19.2786 9.496C19.2786 9.85867 19.2146 10.1947 19.0866 10.504C18.9586 10.808 18.7693 11.072 18.5186 11.296C18.268 11.5147 17.9586 11.688 17.5906 11.816C17.2226 11.9387 16.7986 12 16.3186 12H13.2066V5H10.6146V3.896H14.5666V7.072H16.2866ZM24.5184 11.056C25.3184 11.056 25.921 10.8027 26.3264 10.296C26.737 9.784 26.9424 9.06933 26.9424 8.152C26.9424 7.24 26.745 6.528 26.3504 6.016C25.961 5.504 25.3744 5.248 24.5904 5.248C24.2117 5.248 23.8704 5.30933 23.5664 5.432C23.2624 5.54933 23.0037 5.72267 22.7904 5.952C22.5824 6.18133 22.4197 6.464 22.3024 6.8C22.1904 7.136 22.1344 7.52 22.1344 7.952C22.1344 8.43733 22.185 8.872 22.2864 9.256C22.3877 9.64 22.537 9.96533 22.7344 10.232C22.937 10.4987 23.185 10.704 23.4784 10.848C23.777 10.9867 24.1237 11.056 24.5184 11.056ZM25.0704 1.992C24.5264 2.04 24.0597 2.16 23.6704 2.352C23.2864 2.544 22.9664 2.80533 22.7104 3.136C22.4544 3.46133 22.2624 3.85333 22.1344 4.312C22.0064 4.77067 21.9317 5.288 21.9104 5.864C22.0384 5.608 22.2037 5.37867 22.4064 5.176C22.609 4.968 22.841 4.792 23.1024 4.648C23.3637 4.49867 23.6464 4.38667 23.9504 4.312C24.2597 4.232 24.5877 4.192 24.9344 4.192C25.473 4.192 25.9557 4.288 26.3824 4.48C26.8144 4.66667 27.1797 4.93333 27.4784 5.28C27.7824 5.62667 28.0144 6.04533 28.1744 6.536C28.3344 7.02133 28.4144 7.56 28.4144 8.152C28.4144 8.75467 28.321 9.30133 28.1344 9.792C27.953 10.2773 27.6917 10.6933 27.3504 11.04C27.009 11.3813 26.5984 11.6453 26.1184 11.832C25.6437 12.0187 25.1104 12.112 24.5184 12.112C23.9744 12.112 23.465 12.0213 22.9904 11.84C22.5157 11.6587 22.105 11.36 21.7584 10.944C21.4117 10.528 21.137 9.98133 20.9344 9.304C20.737 8.62133 20.6384 7.78133 20.6384 6.784C20.6384 5.93067 20.7157 5.14667 20.8704 4.432C21.025 3.71733 21.273 3.096 21.6144 2.568C21.961 2.04 22.4064 1.616 22.9504 1.296C23.4997 0.970666 24.1664 0.773333 24.9504 0.704L27.8464 0.455999L27.9264 1.192C27.9424 1.35733 27.9184 1.496 27.8544 1.608C27.7904 1.72 27.6757 1.78133 27.5104 1.792L25.0704 1.992ZM33.6378 3.768C34.2298 3.768 34.7631 3.86667 35.2378 4.064C35.7124 4.26133 36.1178 4.54133 36.4538 4.904C36.7898 5.26667 37.0458 5.70667 37.2218 6.224C37.4031 6.736 37.4938 7.30933 37.4938 7.944C37.4938 8.584 37.4031 9.16 37.2218 9.672C37.0458 10.184 36.7898 10.6213 36.4538 10.984C36.1178 11.3467 35.7124 11.6267 35.2378 11.824C34.7631 12.016 34.2298 12.112 33.6378 12.112C33.0404 12.112 32.5018 12.016 32.0218 11.824C31.5471 11.6267 31.1418 11.3467 30.8058 10.984C30.4698 10.6213 30.2111 10.184 30.0298 9.672C29.8538 9.16 29.7658 8.584 29.7658 7.944C29.7658 7.30933 29.8538 6.736 30.0298 6.224C30.2111 5.70667 30.4698 5.26667 30.8058 4.904C31.1418 4.54133 31.5471 4.26133 32.0218 4.064C32.5018 3.86667 33.0404 3.768 33.6378 3.768ZM33.6378 11C34.4378 11 35.0351 10.7333 35.4298 10.2C35.8244 9.66133 36.0218 8.912 36.0218 7.952C36.0218 6.98667 35.8244 6.23467 35.4298 5.696C35.0351 5.15733 34.4378 4.888 33.6378 4.888C33.2324 4.888 32.8778 4.95733 32.5738 5.096C32.2751 5.23467 32.0244 5.43467 31.8218 5.696C31.6244 5.95733 31.4751 6.28 31.3738 6.664C31.2778 7.04267 31.2298 7.472 31.2298 7.952C31.2298 8.912 31.4271 9.66133 31.8218 10.2C32.2218 10.7333 32.8271 11 33.6378 11ZM45.7078 4.984H42.5958V12H41.1718V4.984H38.0598V3.896H45.7078V4.984ZM51.3794 8.352C50.7234 8.37333 50.1634 8.42667 49.6994 8.512C49.2407 8.592 48.8647 8.69867 48.5714 8.832C48.2834 8.96533 48.0727 9.12267 47.9394 9.304C47.8114 9.48533 47.7474 9.688 47.7474 9.912C47.7474 10.1253 47.782 10.3093 47.8514 10.464C47.9207 10.6187 48.014 10.7467 48.1314 10.848C48.254 10.944 48.3954 11.016 48.5554 11.064C48.7207 11.1067 48.8967 11.128 49.0834 11.128C49.334 11.128 49.5634 11.104 49.7714 11.056C49.9794 11.0027 50.174 10.928 50.3554 10.832C50.542 10.736 50.718 10.6213 50.8834 10.488C51.054 10.3547 51.2194 10.2027 51.3794 10.032V8.352ZM46.7794 5.04C47.2274 4.608 47.71 4.28533 48.2274 4.072C48.7447 3.85867 49.318 3.752 49.9474 3.752C50.4007 3.752 50.8034 3.82667 51.1554 3.976C51.5074 4.12533 51.8034 4.33333 52.0434 4.6C52.2834 4.86667 52.4647 5.18933 52.5874 5.568C52.71 5.94667 52.7714 6.36267 52.7714 6.816V12H52.1394C52.0007 12 51.894 11.9787 51.8194 11.936C51.7447 11.888 51.686 11.7973 51.6434 11.664L51.4834 10.896C51.27 11.0933 51.062 11.2693 50.8594 11.424C50.6567 11.5733 50.4434 11.7013 50.2194 11.808C49.9954 11.9093 49.7554 11.9867 49.4994 12.04C49.2487 12.0987 48.9687 12.128 48.6594 12.128C48.3447 12.128 48.0487 12.0853 47.7714 12C47.494 11.9093 47.2514 11.776 47.0434 11.6C46.8407 11.424 46.678 11.2027 46.5554 10.936C46.438 10.664 46.3794 10.344 46.3794 9.976C46.3794 9.656 46.4674 9.34933 46.6434 9.056C46.8194 8.75733 47.1047 8.49333 47.4994 8.264C47.894 8.03467 48.4087 7.848 49.0434 7.704C49.678 7.55467 50.4567 7.46933 51.3794 7.448V6.816C51.3794 6.18667 51.2434 5.712 50.9714 5.392C50.6994 5.06667 50.302 4.904 49.7794 4.904C49.4274 4.904 49.1314 4.94933 48.8914 5.04C48.6567 5.12533 48.4514 5.224 48.2754 5.336C48.1047 5.44267 47.9554 5.54133 47.8274 5.632C47.7047 5.71733 47.582 5.76 47.4594 5.76C47.3634 5.76 47.2807 5.736 47.2114 5.688C47.142 5.63467 47.0834 5.57067 47.0354 5.496L46.7794 5.04ZM65.9862 3.896V12H64.5623V6.496C64.5623 6.38933 64.5676 6.27467 64.5783 6.152C64.5889 6.02933 64.6023 5.90667 64.6183 5.784C64.5703 5.89067 64.5223 5.98933 64.4743 6.08C64.4263 6.17067 64.3756 6.25333 64.3223 6.328L60.4103 11.648C60.3516 11.7333 60.2769 11.816 60.1863 11.896C60.1009 11.9707 60.0049 12.008 59.8983 12.008H59.0343V3.904H60.4663V9.408C60.4663 9.50933 60.4609 9.62133 60.4503 9.744C60.4396 9.86133 60.4263 9.98133 60.4103 10.104C60.4583 10.0027 60.5063 9.90933 60.5543 9.824C60.6023 9.73333 60.6503 9.65067 60.6983 9.576L64.6103 4.256C64.6689 4.17067 64.7436 4.09067 64.8343 4.016C64.9249 3.936 65.0236 3.896 65.1303 3.896H65.9862ZM10.752 20.536V32H9.2V26.784H3.016V32H1.464V20.536H3.016V25.648H9.2V20.536H10.752ZM18.5208 27.064C18.5208 26.7333 18.4728 26.432 18.3768 26.16C18.2861 25.8827 18.1501 25.6453 17.9688 25.448C17.7928 25.2453 17.5768 25.0907 17.3208 24.984C17.0648 24.872 16.7741 24.816 16.4488 24.816C15.7661 24.816 15.2248 25.016 14.8248 25.416C14.4301 25.8107 14.1848 26.36 14.0888 27.064H18.5208ZM19.6728 30.864C19.4968 31.0773 19.2861 31.264 19.0408 31.424C18.7954 31.5787 18.5314 31.7067 18.2488 31.808C17.9714 31.9093 17.6834 31.984 17.3848 32.032C17.0861 32.0853 16.7901 32.112 16.4968 32.112C15.9368 32.112 15.4194 32.0187 14.9448 31.832C14.4754 31.64 14.0674 31.3627 13.7208 31C13.3794 30.632 13.1128 30.1787 12.9208 29.64C12.7288 29.1013 12.6328 28.4827 12.6328 27.784C12.6328 27.2187 12.7181 26.6907 12.8888 26.2C13.0648 25.7093 13.3154 25.2853 13.6408 24.928C13.9661 24.5653 14.3634 24.2827 14.8328 24.08C15.3021 23.872 15.8301 23.768 16.4168 23.768C16.9021 23.768 17.3501 23.8507 17.7608 24.016C18.1768 24.176 18.5341 24.4107 18.8328 24.72C19.1368 25.024 19.3741 25.4027 19.5448 25.856C19.7154 26.304 19.8008 26.816 19.8008 27.392C19.8008 27.616 19.7768 27.7653 19.7288 27.84C19.6808 27.9147 19.5901 27.952 19.4568 27.952H14.0408C14.0568 28.464 14.1261 28.9093 14.2488 29.288C14.3768 29.6667 14.5528 29.984 14.7768 30.24C15.0008 30.4907 15.2674 30.68 15.5768 30.808C15.8861 30.9307 16.2328 30.992 16.6168 30.992C16.9741 30.992 17.2808 30.952 17.5368 30.872C17.7981 30.7867 18.0221 30.696 18.2088 30.6C18.3954 30.504 18.5501 30.416 18.6728 30.336C18.8008 30.2507 18.9101 30.208 19.0008 30.208C19.1181 30.208 19.2088 30.2533 19.2728 30.344L19.6728 30.864ZM27.0714 30.96V25.016H24.5034C24.45 25.848 24.3754 26.584 24.2794 27.224C24.1834 27.864 24.0714 28.4267 23.9434 28.912C23.8207 29.392 23.682 29.8 23.5274 30.136C23.378 30.472 23.2207 30.7467 23.0554 30.96H27.0714ZM29.9354 30.92V34.352C29.9354 34.4907 29.8954 34.5973 29.8154 34.672C29.7407 34.752 29.642 34.792 29.5194 34.792H28.6474V32H21.8314V34.384C21.8314 34.4853 21.7994 34.5787 21.7354 34.664C21.6767 34.7493 21.578 34.792 21.4394 34.792H20.5434V30.96H20.8074C20.994 30.96 21.178 30.928 21.3594 30.864C21.546 30.8 21.7247 30.68 21.8954 30.504C22.066 30.3227 22.226 30.0693 22.3754 29.744C22.53 29.4187 22.6687 28.9947 22.7914 28.472C22.914 27.9493 23.0207 27.3147 23.1114 26.568C23.202 25.816 23.274 24.9253 23.3274 23.896H28.4554V30.92H29.9354ZM36.6614 27.064C36.6614 26.7333 36.6134 26.432 36.5174 26.16C36.4267 25.8827 36.2907 25.6453 36.1094 25.448C35.9334 25.2453 35.7174 25.0907 35.4614 24.984C35.2054 24.872 34.9147 24.816 34.5894 24.816C33.9067 24.816 33.3654 25.016 32.9654 25.416C32.5707 25.8107 32.3254 26.36 32.2294 27.064H36.6614ZM37.8134 30.864C37.6374 31.0773 37.4267 31.264 37.1814 31.424C36.936 31.5787 36.672 31.7067 36.3894 31.808C36.112 31.9093 35.824 31.984 35.5254 32.032C35.2267 32.0853 34.9307 32.112 34.6374 32.112C34.0774 32.112 33.56 32.0187 33.0854 31.832C32.616 31.64 32.208 31.3627 31.8614 31C31.52 30.632 31.2534 30.1787 31.0614 29.64C30.8694 29.1013 30.7734 28.4827 30.7734 27.784C30.7734 27.2187 30.8587 26.6907 31.0294 26.2C31.2054 25.7093 31.456 25.2853 31.7814 24.928C32.1067 24.5653 32.504 24.2827 32.9734 24.08C33.4427 23.872 33.9707 23.768 34.5574 23.768C35.0427 23.768 35.4907 23.8507 35.9014 24.016C36.3174 24.176 36.6747 24.4107 36.9734 24.72C37.2774 25.024 37.5147 25.4027 37.6854 25.856C37.856 26.304 37.9414 26.816 37.9414 27.392C37.9414 27.616 37.9174 27.7653 37.8694 27.84C37.8214 27.9147 37.7307 27.952 37.5974 27.952H32.1814C32.1974 28.464 32.2667 28.9093 32.3894 29.288C32.5174 29.6667 32.6934 29.984 32.9174 30.24C33.1414 30.4907 33.408 30.68 33.7174 30.808C34.0267 30.9307 34.3734 30.992 34.7574 30.992C35.1147 30.992 35.4214 30.952 35.6774 30.872C35.9387 30.7867 36.1627 30.696 36.3494 30.6C36.536 30.504 36.6907 30.416 36.8134 30.336C36.9414 30.2507 37.0507 30.208 37.1414 30.208C37.2587 30.208 37.3494 30.2533 37.4134 30.344L37.8134 30.864ZM46.7945 32H45.3705V25.016H42.8105C42.7465 26.0453 42.6505 26.936 42.5225 27.688C42.3945 28.4347 42.2398 29.072 42.0585 29.6C41.8825 30.1227 41.6825 30.5493 41.4585 30.88C41.2398 31.2053 41.0078 31.4587 40.7625 31.64C40.5225 31.8213 40.2718 31.944 40.0105 32.008C39.7545 32.072 39.4985 32.104 39.2425 32.104C38.7892 32.104 38.5625 32.032 38.5625 31.888V30.984H38.9785C39.1598 30.984 39.3438 30.952 39.5305 30.888C39.7172 30.824 39.8985 30.7013 40.0745 30.52C40.2558 30.3387 40.4292 30.0853 40.5945 29.76C40.7598 29.4293 40.9092 29.0027 41.0425 28.48C41.1812 27.952 41.2985 27.3147 41.3945 26.568C41.4958 25.816 41.5732 24.9253 41.6265 23.896H46.7945V32ZM53.3139 27.68V24.856H51.9539C51.6499 24.856 51.3939 24.9013 51.1859 24.992C50.9779 25.0773 50.8099 25.1893 50.6819 25.328C50.5592 25.4613 50.4712 25.6133 50.4179 25.784C50.3645 25.9493 50.3379 26.1147 50.3379 26.28C50.3379 26.7173 50.4979 27.0613 50.8179 27.312C51.1379 27.5573 51.5752 27.68 52.1299 27.68H53.3139ZM54.6739 23.896V32H53.3139V28.584H52.6899C52.5405 28.584 52.4152 28.5973 52.3139 28.624C52.2179 28.6453 52.1325 28.6773 52.0579 28.72C51.9885 28.7627 51.9272 28.8187 51.8739 28.888C51.8205 28.952 51.7645 29.0267 51.7059 29.112L49.9299 31.504C49.8392 31.6747 49.7272 31.8 49.5939 31.88C49.4659 31.96 49.2765 32 49.0259 32H48.0339L50.3859 28.944C50.5779 28.624 50.8312 28.4107 51.1459 28.304C50.7352 28.2507 50.3885 28.1547 50.1059 28.016C49.8232 27.8773 49.5912 27.7147 49.4099 27.528C49.2339 27.336 49.1059 27.1253 49.0259 26.896C48.9459 26.6667 48.9059 26.4347 48.9059 26.2C48.9059 25.9227 48.9592 25.6453 49.0659 25.368C49.1779 25.0907 49.3539 24.8453 49.5939 24.632C49.8339 24.4133 50.1432 24.2373 50.5219 24.104C50.9059 23.9653 51.3699 23.896 51.9139 23.896H54.6739Z" fill="#565656"/>
</svg>
