<svg width="101" height="33" viewBox="0 0 101 33" fill="none" xmlns="http://www.w3.org/2000/svg">
<path d="M9.304 12H7.744V1.76H2.016V12H0.464V0.535999H9.304V12ZM15.0596 3.768C15.6516 3.768 16.185 3.86667 16.6596 4.064C17.1343 4.26133 17.5396 4.54133 17.8756 4.904C18.2116 5.26667 18.4676 5.70667 18.6436 6.224C18.825 6.736 18.9156 7.30933 18.9156 7.944C18.9156 8.584 18.825 9.16 18.6436 9.672C18.4676 10.184 18.2116 10.6213 17.8756 10.984C17.5396 11.3467 17.1343 11.6267 16.6596 11.824C16.185 12.016 15.6516 12.112 15.0596 12.112C14.4623 12.112 13.9236 12.016 13.4436 11.824C12.969 11.6267 12.5636 11.3467 12.2276 10.984C11.8916 10.6213 11.633 10.184 11.4516 9.672C11.2756 9.16 11.1876 8.584 11.1876 7.944C11.1876 7.30933 11.2756 6.736 11.4516 6.224C11.633 5.70667 11.8916 5.26667 12.2276 4.904C12.5636 4.54133 12.969 4.26133 13.4436 4.064C13.9236 3.86667 14.4623 3.768 15.0596 3.768ZM15.0596 11C15.8596 11 16.457 10.7333 16.8516 10.2C17.2463 9.66133 17.4436 8.912 17.4436 7.952C17.4436 6.98667 17.2463 6.23467 16.8516 5.696C16.457 5.15733 15.8596 4.888 15.0596 4.888C14.6543 4.888 14.2996 4.95733 13.9956 5.096C13.697 5.23467 13.4463 5.43467 13.2436 5.696C13.0463 5.95733 12.897 6.28 12.7956 6.664C12.6996 7.04267 12.6516 7.472 12.6516 7.952C12.6516 8.912 12.849 9.66133 13.2436 10.2C13.6436 10.7333 14.249 11 15.0596 11ZM27.4738 3.896V12H26.0418V8.208H22.1538V12H20.7218V3.896H22.1538V7.128H26.0418V3.896H27.4738ZM35.1614 7.064C35.1614 6.73333 35.1134 6.432 35.0174 6.16C34.9267 5.88267 34.7907 5.64533 34.6094 5.448C34.4334 5.24533 34.2174 5.09067 33.9614 4.984C33.7054 4.872 33.4147 4.816 33.0894 4.816C32.4067 4.816 31.8654 5.016 31.4654 5.416C31.0707 5.81067 30.8254 6.36 30.7294 7.064H35.1614ZM36.3134 10.864C36.1374 11.0773 35.9267 11.264 35.6814 11.424C35.436 11.5787 35.172 11.7067 34.8894 11.808C34.612 11.9093 34.324 11.984 34.0254 12.032C33.7267 12.0853 33.4307 12.112 33.1374 12.112C32.5774 12.112 32.06 12.0187 31.5854 11.832C31.116 11.64 30.708 11.3627 30.3614 11C30.02 10.632 29.7534 10.1787 29.5614 9.64C29.3694 9.10133 29.2734 8.48267 29.2734 7.784C29.2734 7.21867 29.3587 6.69067 29.5294 6.2C29.7054 5.70933 29.956 5.28533 30.2814 4.928C30.6067 4.56533 31.004 4.28267 31.4734 4.08C31.9427 3.872 32.4707 3.768 33.0574 3.768C33.5427 3.768 33.9907 3.85067 34.4014 4.016C34.8174 4.176 35.1747 4.41067 35.4734 4.72C35.7774 5.024 36.0147 5.40267 36.1854 5.856C36.356 6.304 36.4414 6.816 36.4414 7.392C36.4414 7.616 36.4174 7.76533 36.3694 7.84C36.3214 7.91467 36.2307 7.952 36.0974 7.952H30.6814C30.6974 8.464 30.7667 8.90933 30.8894 9.288C31.0174 9.66667 31.1934 9.984 31.4174 10.24C31.6414 10.4907 31.908 10.68 32.2174 10.808C32.5267 10.9307 32.8734 10.992 33.2574 10.992C33.6147 10.992 33.9214 10.952 34.1774 10.872C34.4387 10.7867 34.6627 10.696 34.8494 10.6C35.036 10.504 35.1907 10.416 35.3134 10.336C35.4414 10.2507 35.5507 10.208 35.6414 10.208C35.7587 10.208 35.8494 10.2533 35.9134 10.344L36.3134 10.864ZM43.712 10.96V5.016H41.144C41.0907 5.848 41.016 6.584 40.92 7.224C40.824 7.864 40.712 8.42667 40.584 8.912C40.4613 9.392 40.3227 9.8 40.168 10.136C40.0187 10.472 39.8613 10.7467 39.696 10.96H43.712ZM46.576 10.92V14.352C46.576 14.4907 46.536 14.5973 46.456 14.672C46.3813 14.752 46.2827 14.792 46.16 14.792H45.288V12H38.472V14.384C38.472 14.4853 38.44 14.5787 38.376 14.664C38.3173 14.7493 38.2187 14.792 38.08 14.792H37.184V10.96H37.448C37.6347 10.96 37.8187 10.928 38 10.864C38.1867 10.8 38.3653 10.68 38.536 10.504C38.7067 10.3227 38.8667 10.0693 39.016 9.744C39.1707 9.41867 39.3093 8.99467 39.432 8.472C39.5547 7.94933 39.6613 7.31467 39.752 6.568C39.8427 5.816 39.9147 4.92533 39.968 3.896H45.096V10.92H46.576ZM53.302 7.064C53.302 6.73333 53.254 6.432 53.158 6.16C53.0673 5.88267 52.9313 5.64533 52.75 5.448C52.574 5.24533 52.358 5.09067 52.102 4.984C51.846 4.872 51.5553 4.816 51.23 4.816C50.5473 4.816 50.006 5.016 49.606 5.416C49.2113 5.81067 48.966 6.36 48.87 7.064H53.302ZM54.454 10.864C54.278 11.0773 54.0673 11.264 53.822 11.424C53.5767 11.5787 53.3127 11.7067 53.03 11.808C52.7527 11.9093 52.4647 11.984 52.166 12.032C51.8673 12.0853 51.5713 12.112 51.278 12.112C50.718 12.112 50.2007 12.0187 49.726 11.832C49.2567 11.64 48.8487 11.3627 48.502 11C48.1607 10.632 47.894 10.1787 47.702 9.64C47.51 9.10133 47.414 8.48267 47.414 7.784C47.414 7.21867 47.4993 6.69067 47.67 6.2C47.846 5.70933 48.0967 5.28533 48.422 4.928C48.7473 4.56533 49.1447 4.28267 49.614 4.08C50.0833 3.872 50.6113 3.768 51.198 3.768C51.6833 3.768 52.1313 3.85067 52.542 4.016C52.958 4.176 53.3153 4.41067 53.614 4.72C53.918 5.024 54.1553 5.40267 54.326 5.856C54.4967 6.304 54.582 6.816 54.582 7.392C54.582 7.616 54.558 7.76533 54.51 7.84C54.462 7.91467 54.3713 7.952 54.238 7.952H48.822C48.838 8.464 48.9073 8.90933 49.03 9.288C49.158 9.66667 49.334 9.984 49.558 10.24C49.782 10.4907 50.0487 10.68 50.358 10.808C50.6673 10.9307 51.014 10.992 51.398 10.992C51.7553 10.992 52.062 10.952 52.318 10.872C52.5793 10.7867 52.8033 10.696 52.99 10.6C53.1767 10.504 53.3313 10.416 53.454 10.336C53.582 10.2507 53.6913 10.208 53.782 10.208C53.8993 10.208 53.99 10.2533 54.054 10.344L54.454 10.864ZM63.4351 12H62.0111V5.016H59.4511C59.3871 6.04533 59.2911 6.936 59.1631 7.688C59.0351 8.43467 58.8805 9.072 58.6991 9.6C58.5231 10.1227 58.3231 10.5493 58.0991 10.88C57.8805 11.2053 57.6485 11.4587 57.4031 11.64C57.1631 11.8213 56.9125 11.944 56.6511 12.008C56.3951 12.072 56.1391 12.104 55.8831 12.104C55.4298 12.104 55.2031 12.032 55.2031 11.888V10.984H55.6191C55.8005 10.984 55.9845 10.952 56.1711 10.888C56.3578 10.824 56.5391 10.7013 56.7151 10.52C56.8965 10.3387 57.0698 10.0853 57.2351 9.76C57.4005 9.42933 57.5498 9.00267 57.6831 8.48C57.8218 7.952 57.9391 7.31467 58.0351 6.568C58.1365 5.816 58.2138 4.92533 58.2671 3.896H63.4351V12ZM72.4425 3.896V12H71.0105V8.208H67.1225V12H65.6905V3.896H67.1225V7.128H71.0105V3.896H72.4425ZM81.6581 3.896V12H80.2341V6.496C80.2341 6.38933 80.2395 6.27467 80.2501 6.152C80.2608 6.02933 80.2741 5.90667 80.2901 5.784C80.2421 5.89067 80.1941 5.98933 80.1461 6.08C80.0981 6.17067 80.0475 6.25333 79.9941 6.328L76.0821 11.648C76.0235 11.7333 75.9488 11.816 75.8581 11.896C75.7728 11.9707 75.6768 12.008 75.5701 12.008H74.7061V3.904H76.1381V9.408C76.1381 9.50933 76.1328 9.62133 76.1221 9.744C76.1115 9.86133 76.0981 9.98133 76.0821 10.104C76.1301 10.0027 76.1781 9.90933 76.2261 9.824C76.2741 9.73333 76.3221 9.65067 76.3701 9.576L80.2821 4.256C80.3408 4.17067 80.4155 4.09067 80.5061 4.016C80.5968 3.936 80.6955 3.896 80.8021 3.896H81.6581ZM88.8293 4.296C88.9039 4.17867 89.0026 4.08267 89.1253 4.008C89.2479 3.93333 89.3786 3.896 89.5173 3.896H90.6293L88.5253 6.984C88.3973 7.18133 88.2639 7.344 88.1253 7.472C87.9866 7.59467 87.8159 7.69067 87.6133 7.76C87.8693 7.82933 88.0853 7.93867 88.2613 8.088C88.4373 8.232 88.5946 8.41867 88.7333 8.648L90.8612 12H89.8693C89.6133 12 89.4159 11.9573 89.2773 11.872C89.1386 11.7867 89.0186 11.664 88.9173 11.504L87.3413 8.984C87.0906 8.568 86.7146 8.36 86.2133 8.36H85.3413V12.008H83.9093V3.896H85.3413V7.4H86.1093C86.5359 7.4 86.8693 7.21867 87.1093 6.856L88.8293 4.296ZM96.1562 6.6H100.108V7.808H96.1562V6.6ZM9.304 32H7.744V21.76H2.016V32H0.464V20.536H9.304V32ZM17.0676 27.064C17.0676 26.7333 17.0196 26.432 16.9236 26.16C16.833 25.8827 16.697 25.6453 16.5156 25.448C16.3396 25.2453 16.1236 25.0907 15.8676 24.984C15.6116 24.872 15.321 24.816 14.9956 24.816C14.313 24.816 13.7716 25.016 13.3716 25.416C12.977 25.8107 12.7316 26.36 12.6356 27.064H17.0676ZM18.2196 30.864C18.0436 31.0773 17.833 31.264 17.5876 31.424C17.3423 31.5787 17.0783 31.7067 16.7956 31.808C16.5183 31.9093 16.2303 31.984 15.9316 32.032C15.633 32.0853 15.337 32.112 15.0436 32.112C14.4836 32.112 13.9663 32.0187 13.4916 31.832C13.0223 31.64 12.6143 31.3627 12.2676 31C11.9263 30.632 11.6596 30.1787 11.4676 29.64C11.2756 29.1013 11.1796 28.4827 11.1796 27.784C11.1796 27.2187 11.265 26.6907 11.4356 26.2C11.6116 25.7093 11.8623 25.2853 12.1876 24.928C12.513 24.5653 12.9103 24.2827 13.3796 24.08C13.849 23.872 14.377 23.768 14.9636 23.768C15.449 23.768 15.897 23.8507 16.3076 24.016C16.7236 24.176 17.081 24.4107 17.3796 24.72C17.6836 25.024 17.921 25.4027 18.0916 25.856C18.2623 26.304 18.3476 26.816 18.3476 27.392C18.3476 27.616 18.3236 27.7653 18.2756 27.84C18.2276 27.9147 18.137 27.952 18.0036 27.952H12.5876C12.6036 28.464 12.673 28.9093 12.7956 29.288C12.9236 29.6667 13.0996 29.984 13.3236 30.24C13.5476 30.4907 13.8143 30.68 14.1236 30.808C14.433 30.9307 14.7796 30.992 15.1636 30.992C15.521 30.992 15.8276 30.952 16.0836 30.872C16.345 30.7867 16.569 30.696 16.7556 30.6C16.9423 30.504 17.097 30.416 17.2196 30.336C17.3476 30.2507 17.457 30.208 17.5476 30.208C17.665 30.208 17.7556 30.2533 17.8196 30.344L18.2196 30.864ZM26.7078 24.984H23.5958V32H22.1718V24.984H19.0598V23.896H26.7078V24.984ZM32.8575 30.96C33.1455 30.96 33.3935 30.9253 33.6015 30.856C33.8148 30.7813 33.9908 30.68 34.1295 30.552C34.2735 30.4187 34.3802 30.264 34.4495 30.088C34.5188 29.912 34.5535 29.72 34.5535 29.512C34.5535 29.32 34.5215 29.1413 34.4575 28.976C34.3988 28.8053 34.3002 28.656 34.1615 28.528C34.0282 28.4 33.8522 28.2987 33.6335 28.224C33.4202 28.1493 33.1562 28.112 32.8415 28.112H31.1135V30.96H32.8575ZM32.8335 27.072C33.3935 27.072 33.8628 27.1387 34.2415 27.272C34.6255 27.4053 34.9348 27.584 35.1695 27.808C35.4042 28.032 35.5722 28.2907 35.6735 28.584C35.7748 28.8773 35.8255 29.1813 35.8255 29.496C35.8255 29.8587 35.7615 30.1947 35.6335 30.504C35.5055 30.808 35.3162 31.072 35.0655 31.296C34.8148 31.5147 34.5055 31.688 34.1375 31.816C33.7695 31.9387 33.3455 32 32.8655 32H29.7535V25H27.1615V23.896H31.1135V27.072H32.8335ZM42.3293 24.296C42.4039 24.1787 42.5026 24.0827 42.6253 24.008C42.7479 23.9333 42.8786 23.896 43.0173 23.896H44.1293L42.0253 26.984C41.8973 27.1813 41.7639 27.344 41.6253 27.472C41.4866 27.5947 41.3159 27.6907 41.1133 27.76C41.3693 27.8293 41.5853 27.9387 41.7613 28.088C41.9373 28.232 42.0946 28.4187 42.2333 28.648L44.3612 32H43.3693C43.1133 32 42.9159 31.9573 42.7773 31.872C42.6386 31.7867 42.5186 31.664 42.4173 31.504L40.8413 28.984C40.5906 28.568 40.2146 28.36 39.7133 28.36H38.8413V32.008H37.4093V23.896H38.8413V27.4H39.6093C40.0359 27.4 40.3693 27.2187 40.6093 26.856L42.3293 24.296Z" fill="#565656"/>
</svg>
