<svg width="87" height="13" viewBox="0 0 87 13" fill="none" xmlns="http://www.w3.org/2000/svg">
<path d="M4.64 10.992C5.01333 10.992 5.34667 10.9413 5.64 10.84C5.93867 10.7333 6.18933 10.5867 6.392 10.4C6.6 10.208 6.75733 9.98133 6.864 9.72C6.976 9.45333 7.032 9.16 7.032 8.84C7.032 8.44533 6.96533 8.10933 6.832 7.832C6.704 7.54933 6.528 7.32 6.304 7.144C6.08533 6.968 5.832 6.84 5.544 6.76C5.256 6.67467 4.95467 6.632 4.64 6.632C4.32533 6.632 4.024 6.67467 3.736 6.76C3.448 6.84 3.192 6.968 2.968 7.144C2.74933 7.32 2.57333 7.54933 2.44 7.832C2.312 8.10933 2.248 8.44533 2.248 8.84C2.248 9.16 2.30133 9.45333 2.408 9.72C2.52 9.98133 2.67733 10.208 2.88 10.4C3.088 10.5867 3.33867 10.7333 3.632 10.84C3.93067 10.9413 4.26667 10.992 4.64 10.992ZM4.64 1.512C4.29867 1.512 3.99733 1.56267 3.736 1.664C3.48 1.76533 3.264 1.904 3.088 2.08C2.91733 2.256 2.78667 2.46133 2.696 2.696C2.61067 2.93067 2.568 3.18133 2.568 3.448C2.568 3.70933 2.60533 3.96267 2.68 4.208C2.75467 4.45333 2.87467 4.672 3.04 4.864C3.20533 5.05067 3.41867 5.20267 3.68 5.32C3.94667 5.432 4.26667 5.488 4.64 5.488C5.01333 5.488 5.33067 5.432 5.592 5.32C5.85867 5.20267 6.07467 5.05067 6.24 4.864C6.40533 4.672 6.52533 4.45333 6.6 4.208C6.67467 3.96267 6.712 3.70933 6.712 3.448C6.712 3.18133 6.66667 2.93067 6.576 2.696C6.49067 2.46133 6.36 2.256 6.184 2.08C6.01333 1.904 5.79733 1.76533 5.536 1.664C5.28 1.56267 4.98133 1.512 4.64 1.512ZM6.28 6.024C6.99467 6.22667 7.544 6.56533 7.928 7.04C8.312 7.51467 8.504 8.12267 8.504 8.864C8.504 9.36533 8.408 9.81867 8.216 10.224C8.02933 10.624 7.76533 10.9653 7.424 11.248C7.088 11.5307 6.68267 11.7493 6.208 11.904C5.73333 12.0533 5.21067 12.128 4.64 12.128C4.06933 12.128 3.54667 12.0533 3.072 11.904C2.59733 11.7493 2.18933 11.5307 1.848 11.248C1.50667 10.9653 1.24267 10.624 1.056 10.224C0.869333 9.81867 0.776 9.36533 0.776 8.864C0.776 8.12267 0.968 7.51467 1.352 7.04C1.736 6.56533 2.28533 6.22667 3 6.024C2.39733 5.8 1.94133 5.46667 1.632 5.024C1.328 4.576 1.176 4.04267 1.176 3.424C1.176 3.00267 1.25867 2.608 1.424 2.24C1.58933 1.872 1.824 1.552 2.128 1.28C2.432 1.008 2.79467 0.794666 3.216 0.639999C3.64267 0.485332 4.11733 0.407999 4.64 0.407999C5.15733 0.407999 5.62933 0.485332 6.056 0.639999C6.48267 0.794666 6.848 1.008 7.152 1.28C7.456 1.552 7.69067 1.872 7.856 2.24C8.02133 2.608 8.104 3.00267 8.104 3.424C8.104 4.04267 7.94933 4.576 7.64 5.024C7.336 5.46667 6.88267 5.8 6.28 6.024ZM10.2812 11.12C10.2812 10.9813 10.3053 10.8507 10.3533 10.728C10.4066 10.6053 10.4759 10.4987 10.5613 10.408C10.6519 10.3173 10.7586 10.2453 10.8813 10.192C11.0039 10.1387 11.1346 10.112 11.2733 10.112C11.4119 10.112 11.5426 10.1387 11.6653 10.192C11.7879 10.2453 11.8946 10.3173 11.9853 10.408C12.0759 10.4987 12.1479 10.6053 12.2013 10.728C12.2546 10.8507 12.2813 10.9813 12.2813 11.12C12.2813 11.264 12.2546 11.3973 12.2013 11.52C12.1479 11.6373 12.0759 11.7413 11.9853 11.832C11.8946 11.9227 11.7879 11.992 11.6653 12.04C11.5426 12.0933 11.4119 12.12 11.2733 12.12C11.1346 12.12 11.0039 12.0933 10.8813 12.04C10.7586 11.992 10.6519 11.9227 10.5613 11.832C10.4759 11.7413 10.4066 11.6373 10.3533 11.52C10.3053 11.3973 10.2812 11.264 10.2812 11.12ZM10.2812 5.12C10.2812 4.98133 10.3053 4.85067 10.3533 4.728C10.4066 4.60533 10.4759 4.49867 10.5613 4.408C10.6519 4.31733 10.7586 4.24533 10.8813 4.192C11.0039 4.13867 11.1346 4.112 11.2733 4.112C11.4119 4.112 11.5426 4.13867 11.6653 4.192C11.7879 4.24533 11.8946 4.31733 11.9853 4.408C12.0759 4.49867 12.1479 4.60533 12.2013 4.728C12.2546 4.85067 12.2813 4.98133 12.2813 5.12C12.2813 5.264 12.2546 5.39733 12.2013 5.52C12.1479 5.63733 12.0759 5.74133 11.9853 5.832C11.8946 5.92267 11.7879 5.99467 11.6653 6.048C11.5426 6.096 11.4119 6.12 11.2733 6.12C11.1346 6.12 11.0039 6.096 10.8813 6.048C10.7586 5.99467 10.6519 5.92267 10.5613 5.832C10.4759 5.74133 10.4066 5.63733 10.3533 5.52C10.3053 5.39733 10.2812 5.264 10.2812 5.12ZM14.3213 3.64C14.3959 3.11733 14.5399 2.656 14.7533 2.256C14.9666 1.85067 15.2359 1.512 15.5613 1.24C15.8919 0.968 16.2679 0.762666 16.6893 0.624C17.1159 0.479999 17.5746 0.407999 18.0653 0.407999C18.5506 0.407999 18.9986 0.477332 19.4093 0.615999C19.8199 0.754666 20.1719 0.951999 20.4653 1.208C20.7639 1.464 20.9959 1.77333 21.1613 2.136C21.3266 2.49867 21.4093 2.90133 21.4093 3.344C21.4093 3.70667 21.3613 4.032 21.2653 4.32C21.1746 4.60267 21.0413 4.85067 20.8653 5.064C20.6946 5.27733 20.4866 5.45867 20.2413 5.608C19.9959 5.75733 19.7213 5.88 19.4173 5.976C20.1639 6.168 20.7239 6.49867 21.0973 6.968C21.4759 7.432 21.6653 8.01333 21.6653 8.712C21.6653 9.24 21.5639 9.71467 21.3612 10.136C21.1639 10.5573 20.8919 10.9173 20.5453 11.216C20.1986 11.5093 19.7933 11.736 19.3293 11.896C18.8706 12.0507 18.3773 12.128 17.8493 12.128C17.2413 12.128 16.7213 12.0533 16.2893 11.904C15.8573 11.7493 15.4919 11.5387 15.1933 11.272C14.8946 11.0053 14.6493 10.6907 14.4572 10.328C14.2653 9.96 14.1026 9.56267 13.9693 9.136L14.5853 8.88C14.7453 8.81067 14.8999 8.792 15.0493 8.824C15.2039 8.856 15.3159 8.944 15.3853 9.088C15.4546 9.23733 15.5399 9.416 15.6413 9.624C15.7479 9.832 15.8919 10.032 16.0733 10.224C16.2546 10.416 16.4839 10.5787 16.7613 10.712C17.0439 10.8453 17.4013 10.912 17.8333 10.912C18.2333 10.912 18.5826 10.848 18.8813 10.72C19.1853 10.5867 19.4359 10.416 19.6333 10.208C19.8359 10 19.9879 9.768 20.0893 9.512C20.1906 9.256 20.2413 9.00267 20.2413 8.752C20.2413 8.44267 20.2013 8.16 20.1213 7.904C20.0413 7.648 19.8919 7.42667 19.6733 7.24C19.4546 7.05333 19.1533 6.90667 18.7693 6.8C18.3906 6.69333 17.9026 6.64 17.3053 6.64V5.608C17.7959 5.60267 18.2119 5.54933 18.5533 5.448C18.8999 5.34667 19.1799 5.208 19.3933 5.032C19.6119 4.856 19.7693 4.64533 19.8653 4.4C19.9666 4.15467 20.0173 3.88267 20.0173 3.584C20.0173 3.25333 19.9639 2.96533 19.8573 2.72C19.7559 2.47467 19.6146 2.272 19.4333 2.112C19.2519 1.952 19.0359 1.832 18.7853 1.752C18.5399 1.672 18.2733 1.632 17.9852 1.632C17.6973 1.632 17.4279 1.67467 17.1773 1.76C16.9319 1.84533 16.7133 1.96533 16.5213 2.12C16.3346 2.26933 16.1773 2.448 16.0493 2.656C15.9213 2.864 15.8306 3.09333 15.7773 3.344C15.7079 3.53067 15.6199 3.656 15.5133 3.72C15.4119 3.77867 15.2626 3.79467 15.0653 3.768L14.3213 3.64ZM31.3625 6.272C31.3625 7.27467 31.2532 8.144 31.0345 8.88C30.8212 9.61067 30.5278 10.216 30.1545 10.696C29.7812 11.176 29.3385 11.5333 28.8265 11.768C28.3198 12.0027 27.7758 12.12 27.1945 12.12C26.6078 12.12 26.0612 12.0027 25.5545 11.768C25.0532 11.5333 24.6158 11.176 24.2425 10.696C23.8692 10.216 23.5758 9.61067 23.3625 8.88C23.1492 8.144 23.0425 7.27467 23.0425 6.272C23.0425 5.26933 23.1492 4.4 23.3625 3.664C23.5758 2.928 23.8692 2.32 24.2425 1.84C24.6158 1.35467 25.0532 0.994666 25.5545 0.759999C26.0612 0.525332 26.6078 0.407999 27.1945 0.407999C27.7758 0.407999 28.3198 0.525332 28.8265 0.759999C29.3385 0.994666 29.7812 1.35467 30.1545 1.84C30.5278 2.32 30.8212 2.928 31.0345 3.664C31.2532 4.4 31.3625 5.26933 31.3625 6.272ZM29.8825 6.272C29.8825 5.39733 29.8078 4.664 29.6585 4.072C29.5145 3.47467 29.3172 2.99467 29.0665 2.632C28.8212 2.26933 28.5358 2.01067 28.2105 1.856C27.8852 1.696 27.5465 1.616 27.1945 1.616C26.8425 1.616 26.5038 1.696 26.1785 1.856C25.8532 2.01067 25.5678 2.26933 25.3225 2.632C25.0772 2.99467 24.8798 3.47467 24.7305 4.072C24.5865 4.664 24.5145 5.39733 24.5145 6.272C24.5145 7.14667 24.5865 7.88 24.7305 8.472C24.8798 9.064 25.0772 9.54133 25.3225 9.904C25.5678 10.2667 25.8532 10.528 26.1785 10.688C26.5038 10.8427 26.8425 10.92 27.1945 10.92C27.5465 10.92 27.8852 10.8427 28.2105 10.688C28.5358 10.528 28.8212 10.2667 29.0665 9.904C29.3172 9.54133 29.5145 9.064 29.6585 8.472C29.8078 7.88 29.8825 7.14667 29.8825 6.272ZM36.9375 6.6H40.8895V7.808H36.9375V6.6ZM54.1128 10.912V12H47.9688V10.912H50.4248V3.096C50.4248 2.86133 50.4328 2.624 50.4488 2.384L48.4088 4.136C48.3394 4.19467 48.2701 4.232 48.2008 4.248C48.1314 4.25867 48.0674 4.25867 48.0088 4.248C47.9501 4.23733 47.8941 4.216 47.8408 4.184C47.7928 4.152 47.7554 4.11733 47.7288 4.08L47.2808 3.464L50.6968 0.511999H51.8568V10.912H54.1128ZM59.89 10.992C60.2633 10.992 60.5967 10.9413 60.89 10.84C61.1887 10.7333 61.4393 10.5867 61.642 10.4C61.85 10.208 62.0073 9.98133 62.114 9.72C62.226 9.45333 62.282 9.16 62.282 8.84C62.282 8.44533 62.2153 8.10933 62.082 7.832C61.954 7.54933 61.778 7.32 61.554 7.144C61.3353 6.968 61.082 6.84 60.794 6.76C60.506 6.67467 60.2047 6.632 59.89 6.632C59.5753 6.632 59.274 6.67467 58.986 6.76C58.698 6.84 58.442 6.968 58.218 7.144C57.9993 7.32 57.8233 7.54933 57.69 7.832C57.562 8.10933 57.498 8.44533 57.498 8.84C57.498 9.16 57.5513 9.45333 57.658 9.72C57.77 9.98133 57.9273 10.208 58.13 10.4C58.338 10.5867 58.5887 10.7333 58.882 10.84C59.1807 10.9413 59.5167 10.992 59.89 10.992ZM59.89 1.512C59.5487 1.512 59.2473 1.56267 58.986 1.664C58.73 1.76533 58.514 1.904 58.338 2.08C58.1673 2.256 58.0367 2.46133 57.946 2.696C57.8607 2.93067 57.818 3.18133 57.818 3.448C57.818 3.70933 57.8553 3.96267 57.93 4.208C58.0047 4.45333 58.1247 4.672 58.29 4.864C58.4553 5.05067 58.6687 5.20267 58.93 5.32C59.1967 5.432 59.5167 5.488 59.89 5.488C60.2633 5.488 60.5807 5.432 60.842 5.32C61.1087 5.20267 61.3247 5.05067 61.49 4.864C61.6553 4.672 61.7753 4.45333 61.85 4.208C61.9247 3.96267 61.962 3.70933 61.962 3.448C61.962 3.18133 61.9167 2.93067 61.826 2.696C61.7407 2.46133 61.61 2.256 61.434 2.08C61.2633 1.904 61.0473 1.76533 60.786 1.664C60.53 1.56267 60.2313 1.512 59.89 1.512ZM61.53 6.024C62.2447 6.22667 62.794 6.56533 63.178 7.04C63.562 7.51467 63.754 8.12267 63.754 8.864C63.754 9.36533 63.658 9.81867 63.466 10.224C63.2793 10.624 63.0153 10.9653 62.674 11.248C62.338 11.5307 61.9327 11.7493 61.458 11.904C60.9833 12.0533 60.4607 12.128 59.89 12.128C59.3193 12.128 58.7967 12.0533 58.322 11.904C57.8473 11.7493 57.4393 11.5307 57.098 11.248C56.7567 10.9653 56.4927 10.624 56.306 10.224C56.1193 9.81867 56.026 9.36533 56.026 8.864C56.026 8.12267 56.218 7.51467 56.602 7.04C56.986 6.56533 57.5353 6.22667 58.25 6.024C57.6473 5.8 57.1913 5.46667 56.882 5.024C56.578 4.576 56.426 4.04267 56.426 3.424C56.426 3.00267 56.5087 2.608 56.674 2.24C56.8393 1.872 57.074 1.552 57.378 1.28C57.682 1.008 58.0447 0.794666 58.466 0.639999C58.8927 0.485332 59.3673 0.407999 59.89 0.407999C60.4073 0.407999 60.8793 0.485332 61.306 0.639999C61.7327 0.794666 62.098 1.008 62.402 1.28C62.706 1.552 62.9407 1.872 63.106 2.24C63.2713 2.608 63.354 3.00267 63.354 3.424C63.354 4.04267 63.1993 4.576 62.89 5.024C62.586 5.46667 62.1327 5.8 61.53 6.024ZM65.5312 11.12C65.5312 10.9813 65.5553 10.8507 65.6033 10.728C65.6566 10.6053 65.7259 10.4987 65.8113 10.408C65.9019 10.3173 66.0086 10.2453 66.1313 10.192C66.2539 10.1387 66.3846 10.112 66.5233 10.112C66.6619 10.112 66.7926 10.1387 66.9153 10.192C67.0379 10.2453 67.1446 10.3173 67.2353 10.408C67.3259 10.4987 67.3979 10.6053 67.4513 10.728C67.5046 10.8507 67.5313 10.9813 67.5313 11.12C67.5313 11.264 67.5046 11.3973 67.4513 11.52C67.3979 11.6373 67.3259 11.7413 67.2353 11.832C67.1446 11.9227 67.0379 11.992 66.9153 12.04C66.7926 12.0933 66.6619 12.12 66.5233 12.12C66.3846 12.12 66.2539 12.0933 66.1313 12.04C66.0086 11.992 65.9019 11.9227 65.8113 11.832C65.7259 11.7413 65.6566 11.6373 65.6033 11.52C65.5553 11.3973 65.5312 11.264 65.5312 11.12ZM65.5312 5.12C65.5312 4.98133 65.5553 4.85067 65.6033 4.728C65.6566 4.60533 65.7259 4.49867 65.8113 4.408C65.9019 4.31733 66.0086 4.24533 66.1313 4.192C66.2539 4.13867 66.3846 4.112 66.5233 4.112C66.6619 4.112 66.7926 4.13867 66.9153 4.192C67.0379 4.24533 67.1446 4.31733 67.2353 4.408C67.3259 4.49867 67.3979 4.60533 67.4513 4.728C67.5046 4.85067 67.5313 4.98133 67.5313 5.12C67.5313 5.264 67.5046 5.39733 67.4513 5.52C67.3979 5.63733 67.3259 5.74133 67.2353 5.832C67.1446 5.92267 67.0379 5.99467 66.9153 6.048C66.7926 6.096 66.6619 6.12 66.5233 6.12C66.3846 6.12 66.2539 6.096 66.1313 6.048C66.0086 5.99467 65.9019 5.92267 65.8113 5.832C65.7259 5.74133 65.6566 5.63733 65.6033 5.52C65.5553 5.39733 65.5312 5.264 65.5312 5.12ZM77.3313 6.272C77.3313 7.27467 77.2219 8.144 77.0033 8.88C76.7899 9.61067 76.4966 10.216 76.1233 10.696C75.7499 11.176 75.3073 11.5333 74.7953 11.768C74.2886 12.0027 73.7446 12.12 73.1633 12.12C72.5766 12.12 72.0299 12.0027 71.5233 11.768C71.0219 11.5333 70.5846 11.176 70.2113 10.696C69.8379 10.216 69.5446 9.61067 69.3313 8.88C69.1179 8.144 69.0113 7.27467 69.0113 6.272C69.0113 5.26933 69.1179 4.4 69.3313 3.664C69.5446 2.928 69.8379 2.32 70.2113 1.84C70.5846 1.35467 71.0219 0.994666 71.5233 0.759999C72.0299 0.525332 72.5766 0.407999 73.1633 0.407999C73.7446 0.407999 74.2886 0.525332 74.7953 0.759999C75.3073 0.994666 75.7499 1.35467 76.1233 1.84C76.4966 2.32 76.7899 2.928 77.0033 3.664C77.2219 4.4 77.3313 5.26933 77.3313 6.272ZM75.8513 6.272C75.8513 5.39733 75.7766 4.664 75.6273 4.072C75.4833 3.47467 75.2859 2.99467 75.0353 2.632C74.7899 2.26933 74.5046 2.01067 74.1793 1.856C73.8539 1.696 73.5153 1.616 73.1633 1.616C72.8113 1.616 72.4726 1.696 72.1473 1.856C71.8219 2.01067 71.5366 2.26933 71.2913 2.632C71.0459 2.99467 70.8486 3.47467 70.6993 4.072C70.5553 4.664 70.4833 5.39733 70.4833 6.272C70.4833 7.14667 70.5553 7.88 70.6993 8.472C70.8486 9.064 71.0459 9.54133 71.2913 9.904C71.5366 10.2667 71.8219 10.528 72.1473 10.688C72.4726 10.8427 72.8113 10.92 73.1633 10.92C73.5153 10.92 73.8539 10.8427 74.1793 10.688C74.5046 10.528 74.7899 10.2667 75.0353 9.904C75.2859 9.54133 75.4833 9.064 75.6273 8.472C75.7766 7.88 75.8513 7.14667 75.8513 6.272ZM86.6125 6.272C86.6125 7.27467 86.5032 8.144 86.2845 8.88C86.0712 9.61067 85.7778 10.216 85.4045 10.696C85.0312 11.176 84.5885 11.5333 84.0765 11.768C83.5698 12.0027 83.0258 12.12 82.4445 12.12C81.8578 12.12 81.3112 12.0027 80.8045 11.768C80.3032 11.5333 79.8658 11.176 79.4925 10.696C79.1192 10.216 78.8258 9.61067 78.6125 8.88C78.3992 8.144 78.2925 7.27467 78.2925 6.272C78.2925 5.26933 78.3992 4.4 78.6125 3.664C78.8258 2.928 79.1192 2.32 79.4925 1.84C79.8658 1.35467 80.3032 0.994666 80.8045 0.759999C81.3112 0.525332 81.8578 0.407999 82.4445 0.407999C83.0258 0.407999 83.5698 0.525332 84.0765 0.759999C84.5885 0.994666 85.0312 1.35467 85.4045 1.84C85.7778 2.32 86.0712 2.928 86.2845 3.664C86.5032 4.4 86.6125 5.26933 86.6125 6.272ZM85.1325 6.272C85.1325 5.39733 85.0578 4.664 84.9085 4.072C84.7645 3.47467 84.5672 2.99467 84.3165 2.632C84.0712 2.26933 83.7858 2.01067 83.4605 1.856C83.1352 1.696 82.7965 1.616 82.4445 1.616C82.0925 1.616 81.7538 1.696 81.4285 1.856C81.1032 2.01067 80.8178 2.26933 80.5725 2.632C80.3272 2.99467 80.1298 3.47467 79.9805 4.072C79.8365 4.664 79.7645 5.39733 79.7645 6.272C79.7645 7.14667 79.8365 7.88 79.9805 8.472C80.1298 9.064 80.3272 9.54133 80.5725 9.904C80.8178 10.2667 81.1032 10.528 81.4285 10.688C81.7538 10.8427 82.0925 10.92 82.4445 10.92C82.7965 10.92 83.1352 10.8427 83.4605 10.688C83.7858 10.528 84.0712 10.2667 84.3165 9.904C84.5672 9.54133 84.7645 9.064 84.9085 8.472C85.0578 7.88 85.1325 7.14667 85.1325 6.272Z" fill="#FF9100"/>
</svg>
