<svg width="87" height="13" viewBox="0 0 87 13" fill="none" xmlns="http://www.w3.org/2000/svg">
<path d="M2.264 3.904C2.264 4.26667 2.31467 4.592 2.416 4.88C2.52267 5.16267 2.672 5.40267 2.864 5.6C3.06133 5.79733 3.29867 5.94667 3.576 6.048C3.85867 6.14933 4.17333 6.2 4.52 6.2C4.904 6.2 5.24267 6.13867 5.536 6.016C5.83467 5.888 6.08533 5.72 6.288 5.512C6.49067 5.304 6.64533 5.064 6.752 4.792C6.85867 4.52 6.912 4.23733 6.912 3.944C6.912 3.58667 6.85333 3.264 6.736 2.976C6.624 2.68267 6.46667 2.43467 6.264 2.232C6.06133 2.02933 5.81867 1.87467 5.536 1.768C5.25867 1.656 4.952 1.6 4.616 1.6C4.264 1.6 3.944 1.65867 3.656 1.776C3.368 1.888 3.12 2.04533 2.912 2.248C2.704 2.45067 2.544 2.69333 2.432 2.976C2.32 3.25867 2.264 3.568 2.264 3.904ZM5.592 7.432C5.70933 7.27733 5.81867 7.13067 5.92 6.992C6.02133 6.85333 6.11733 6.71467 6.208 6.576C5.91467 6.81067 5.584 6.98933 5.216 7.112C4.848 7.23467 4.45867 7.296 4.048 7.296C3.616 7.296 3.20533 7.224 2.816 7.08C2.432 6.936 2.09333 6.72533 1.8 6.448C1.50667 6.16533 1.272 5.82133 1.096 5.416C0.925333 5.00533 0.84 4.536 0.84 4.008C0.84 3.50667 0.933333 3.03733 1.12 2.6C1.30667 2.16267 1.568 1.78133 1.904 1.456C2.24 1.13067 2.64 0.874666 3.104 0.688C3.568 0.501333 4.07733 0.407999 4.632 0.407999C5.18133 0.407999 5.68 0.498666 6.128 0.679999C6.576 0.861333 6.96 1.11467 7.28 1.44C7.6 1.76533 7.84533 2.15467 8.016 2.608C8.192 3.06133 8.28 3.56267 8.28 4.112C8.28 4.44267 8.248 4.75733 8.184 5.056C8.12533 5.34933 8.03733 5.64 7.92 5.928C7.808 6.21067 7.66933 6.49333 7.504 6.776C7.33867 7.05333 7.152 7.33867 6.944 7.632L4.152 11.664C4.08267 11.7653 3.984 11.848 3.856 11.912C3.728 11.9707 3.58133 12 3.416 12H2.104L5.592 7.432ZM10.2812 11.12C10.2812 10.9813 10.3053 10.8507 10.3533 10.728C10.4066 10.6053 10.4759 10.4987 10.5613 10.408C10.6519 10.3173 10.7586 10.2453 10.8813 10.192C11.0039 10.1387 11.1346 10.112 11.2733 10.112C11.4119 10.112 11.5426 10.1387 11.6653 10.192C11.7879 10.2453 11.8946 10.3173 11.9853 10.408C12.0759 10.4987 12.1479 10.6053 12.2013 10.728C12.2546 10.8507 12.2813 10.9813 12.2813 11.12C12.2813 11.264 12.2546 11.3973 12.2013 11.52C12.1479 11.6373 12.0759 11.7413 11.9853 11.832C11.8946 11.9227 11.7879 11.992 11.6653 12.04C11.5426 12.0933 11.4119 12.12 11.2733 12.12C11.1346 12.12 11.0039 12.0933 10.8813 12.04C10.7586 11.992 10.6519 11.9227 10.5613 11.832C10.4759 11.7413 10.4066 11.6373 10.3533 11.52C10.3053 11.3973 10.2812 11.264 10.2812 11.12ZM10.2812 5.12C10.2812 4.98133 10.3053 4.85067 10.3533 4.728C10.4066 4.60533 10.4759 4.49867 10.5613 4.408C10.6519 4.31733 10.7586 4.24533 10.8813 4.192C11.0039 4.13867 11.1346 4.112 11.2733 4.112C11.4119 4.112 11.5426 4.13867 11.6653 4.192C11.7879 4.24533 11.8946 4.31733 11.9853 4.408C12.0759 4.49867 12.1479 4.60533 12.2013 4.728C12.2546 4.85067 12.2813 4.98133 12.2813 5.12C12.2813 5.264 12.2546 5.39733 12.2013 5.52C12.1479 5.63733 12.0759 5.74133 11.9853 5.832C11.8946 5.92267 11.7879 5.99467 11.6653 6.048C11.5426 6.096 11.4119 6.12 11.2733 6.12C11.1346 6.12 11.0039 6.096 10.8813 6.048C10.7586 5.99467 10.6519 5.92267 10.5613 5.832C10.4759 5.74133 10.4066 5.63733 10.3533 5.52C10.3053 5.39733 10.2812 5.264 10.2812 5.12ZM22.0813 6.272C22.0813 7.27467 21.9719 8.144 21.7533 8.88C21.5399 9.61067 21.2466 10.216 20.8733 10.696C20.4999 11.176 20.0573 11.5333 19.5453 11.768C19.0386 12.0027 18.4946 12.12 17.9133 12.12C17.3266 12.12 16.7799 12.0027 16.2733 11.768C15.7719 11.5333 15.3346 11.176 14.9613 10.696C14.5879 10.216 14.2946 9.61067 14.0813 8.88C13.8679 8.144 13.7613 7.27467 13.7613 6.272C13.7613 5.26933 13.8679 4.4 14.0813 3.664C14.2946 2.928 14.5879 2.32 14.9613 1.84C15.3346 1.35467 15.7719 0.994666 16.2733 0.759999C16.7799 0.525332 17.3266 0.407999 17.9133 0.407999C18.4946 0.407999 19.0386 0.525332 19.5453 0.759999C20.0573 0.994666 20.4999 1.35467 20.8733 1.84C21.2466 2.32 21.5399 2.928 21.7533 3.664C21.9719 4.4 22.0813 5.26933 22.0813 6.272ZM20.6013 6.272C20.6013 5.39733 20.5266 4.664 20.3773 4.072C20.2333 3.47467 20.0359 2.99467 19.7853 2.632C19.5399 2.26933 19.2546 2.01067 18.9293 1.856C18.6039 1.696 18.2653 1.616 17.9133 1.616C17.5613 1.616 17.2226 1.696 16.8973 1.856C16.5719 2.01067 16.2866 2.26933 16.0413 2.632C15.7959 2.99467 15.5986 3.47467 15.4493 4.072C15.3053 4.664 15.2333 5.39733 15.2333 6.272C15.2333 7.14667 15.3053 7.88 15.4493 8.472C15.5986 9.064 15.7959 9.54133 16.0413 9.904C16.2866 10.2667 16.5719 10.528 16.8973 10.688C17.2226 10.8427 17.5613 10.92 17.9133 10.92C18.2653 10.92 18.6039 10.8427 18.9293 10.688C19.2546 10.528 19.5399 10.2667 19.7853 9.904C20.0359 9.54133 20.2333 9.064 20.3773 8.472C20.5266 7.88 20.6013 7.14667 20.6013 6.272ZM31.3625 6.272C31.3625 7.27467 31.2532 8.144 31.0345 8.88C30.8212 9.61067 30.5278 10.216 30.1545 10.696C29.7812 11.176 29.3385 11.5333 28.8265 11.768C28.3198 12.0027 27.7758 12.12 27.1945 12.12C26.6078 12.12 26.0612 12.0027 25.5545 11.768C25.0532 11.5333 24.6158 11.176 24.2425 10.696C23.8692 10.216 23.5758 9.61067 23.3625 8.88C23.1492 8.144 23.0425 7.27467 23.0425 6.272C23.0425 5.26933 23.1492 4.4 23.3625 3.664C23.5758 2.928 23.8692 2.32 24.2425 1.84C24.6158 1.35467 25.0532 0.994666 25.5545 0.759999C26.0612 0.525332 26.6078 0.407999 27.1945 0.407999C27.7758 0.407999 28.3198 0.525332 28.8265 0.759999C29.3385 0.994666 29.7812 1.35467 30.1545 1.84C30.5278 2.32 30.8212 2.928 31.0345 3.664C31.2532 4.4 31.3625 5.26933 31.3625 6.272ZM29.8825 6.272C29.8825 5.39733 29.8078 4.664 29.6585 4.072C29.5145 3.47467 29.3172 2.99467 29.0665 2.632C28.8212 2.26933 28.5358 2.01067 28.2105 1.856C27.8852 1.696 27.5465 1.616 27.1945 1.616C26.8425 1.616 26.5038 1.696 26.1785 1.856C25.8532 2.01067 25.5678 2.26933 25.3225 2.632C25.0772 2.99467 24.8798 3.47467 24.7305 4.072C24.5865 4.664 24.5145 5.39733 24.5145 6.272C24.5145 7.14667 24.5865 7.88 24.7305 8.472C24.8798 9.064 25.0772 9.54133 25.3225 9.904C25.5678 10.2667 25.8532 10.528 26.1785 10.688C26.5038 10.8427 26.8425 10.92 27.1945 10.92C27.5465 10.92 27.8852 10.8427 28.2105 10.688C28.5358 10.528 28.8212 10.2667 29.0665 9.904C29.3172 9.54133 29.5145 9.064 29.6585 8.472C29.8078 7.88 29.8825 7.14667 29.8825 6.272ZM36.9375 6.6H40.8895V7.808H36.9375V6.6ZM54.1128 10.912V12H47.9688V10.912H50.4248V3.096C50.4248 2.86133 50.4328 2.624 50.4488 2.384L48.4088 4.136C48.3394 4.19467 48.2701 4.232 48.2008 4.248C48.1314 4.25867 48.0674 4.25867 48.0088 4.248C47.9501 4.23733 47.8941 4.216 47.8408 4.184C47.7928 4.152 47.7554 4.11733 47.7288 4.08L47.2808 3.464L50.6968 0.511999H51.8568V10.912H54.1128ZM57.514 3.904C57.514 4.26667 57.5647 4.592 57.666 4.88C57.7727 5.16267 57.922 5.40267 58.114 5.6C58.3113 5.79733 58.5487 5.94667 58.826 6.048C59.1087 6.14933 59.4233 6.2 59.77 6.2C60.154 6.2 60.4927 6.13867 60.786 6.016C61.0847 5.888 61.3353 5.72 61.538 5.512C61.7407 5.304 61.8953 5.064 62.002 4.792C62.1087 4.52 62.162 4.23733 62.162 3.944C62.162 3.58667 62.1033 3.264 61.986 2.976C61.874 2.68267 61.7167 2.43467 61.514 2.232C61.3113 2.02933 61.0687 1.87467 60.786 1.768C60.5087 1.656 60.202 1.6 59.866 1.6C59.514 1.6 59.194 1.65867 58.906 1.776C58.618 1.888 58.37 2.04533 58.162 2.248C57.954 2.45067 57.794 2.69333 57.682 2.976C57.57 3.25867 57.514 3.568 57.514 3.904ZM60.842 7.432C60.9593 7.27733 61.0687 7.13067 61.17 6.992C61.2713 6.85333 61.3673 6.71467 61.458 6.576C61.1647 6.81067 60.834 6.98933 60.466 7.112C60.098 7.23467 59.7087 7.296 59.298 7.296C58.866 7.296 58.4553 7.224 58.066 7.08C57.682 6.936 57.3433 6.72533 57.05 6.448C56.7567 6.16533 56.522 5.82133 56.346 5.416C56.1753 5.00533 56.09 4.536 56.09 4.008C56.09 3.50667 56.1833 3.03733 56.37 2.6C56.5567 2.16267 56.818 1.78133 57.154 1.456C57.49 1.13067 57.89 0.874666 58.354 0.688C58.818 0.501333 59.3273 0.407999 59.882 0.407999C60.4313 0.407999 60.93 0.498666 61.378 0.679999C61.826 0.861333 62.21 1.11467 62.53 1.44C62.85 1.76533 63.0953 2.15467 63.266 2.608C63.442 3.06133 63.53 3.56267 63.53 4.112C63.53 4.44267 63.498 4.75733 63.434 5.056C63.3753 5.34933 63.2873 5.64 63.17 5.928C63.058 6.21067 62.9193 6.49333 62.754 6.776C62.5887 7.05333 62.402 7.33867 62.194 7.632L59.402 11.664C59.3327 11.7653 59.234 11.848 59.106 11.912C58.978 11.9707 58.8313 12 58.666 12H57.354L60.842 7.432ZM65.5312 11.12C65.5312 10.9813 65.5553 10.8507 65.6033 10.728C65.6566 10.6053 65.7259 10.4987 65.8113 10.408C65.9019 10.3173 66.0086 10.2453 66.1313 10.192C66.2539 10.1387 66.3846 10.112 66.5233 10.112C66.6619 10.112 66.7926 10.1387 66.9153 10.192C67.0379 10.2453 67.1446 10.3173 67.2353 10.408C67.3259 10.4987 67.3979 10.6053 67.4513 10.728C67.5046 10.8507 67.5313 10.9813 67.5313 11.12C67.5313 11.264 67.5046 11.3973 67.4513 11.52C67.3979 11.6373 67.3259 11.7413 67.2353 11.832C67.1446 11.9227 67.0379 11.992 66.9153 12.04C66.7926 12.0933 66.6619 12.12 66.5233 12.12C66.3846 12.12 66.2539 12.0933 66.1313 12.04C66.0086 11.992 65.9019 11.9227 65.8113 11.832C65.7259 11.7413 65.6566 11.6373 65.6033 11.52C65.5553 11.3973 65.5312 11.264 65.5312 11.12ZM65.5312 5.12C65.5312 4.98133 65.5553 4.85067 65.6033 4.728C65.6566 4.60533 65.7259 4.49867 65.8113 4.408C65.9019 4.31733 66.0086 4.24533 66.1313 4.192C66.2539 4.13867 66.3846 4.112 66.5233 4.112C66.6619 4.112 66.7926 4.13867 66.9153 4.192C67.0379 4.24533 67.1446 4.31733 67.2353 4.408C67.3259 4.49867 67.3979 4.60533 67.4513 4.728C67.5046 4.85067 67.5313 4.98133 67.5313 5.12C67.5313 5.264 67.5046 5.39733 67.4513 5.52C67.3979 5.63733 67.3259 5.74133 67.2353 5.832C67.1446 5.92267 67.0379 5.99467 66.9153 6.048C66.7926 6.096 66.6619 6.12 66.5233 6.12C66.3846 6.12 66.2539 6.096 66.1313 6.048C66.0086 5.99467 65.9019 5.92267 65.8113 5.832C65.7259 5.74133 65.6566 5.63733 65.6033 5.52C65.5553 5.39733 65.5312 5.264 65.5312 5.12ZM69.5713 3.64C69.6459 3.11733 69.7899 2.656 70.0033 2.256C70.2166 1.85067 70.4859 1.512 70.8113 1.24C71.1419 0.968 71.5179 0.762666 71.9393 0.624C72.3659 0.479999 72.8246 0.407999 73.3153 0.407999C73.8006 0.407999 74.2486 0.477332 74.6593 0.615999C75.0699 0.754666 75.4219 0.951999 75.7153 1.208C76.0139 1.464 76.2459 1.77333 76.4113 2.136C76.5766 2.49867 76.6593 2.90133 76.6593 3.344C76.6593 3.70667 76.6113 4.032 76.5153 4.32C76.4246 4.60267 76.2913 4.85067 76.1153 5.064C75.9446 5.27733 75.7366 5.45867 75.4913 5.608C75.2459 5.75733 74.9713 5.88 74.6673 5.976C75.4139 6.168 75.9739 6.49867 76.3473 6.968C76.7259 7.432 76.9153 8.01333 76.9153 8.712C76.9153 9.24 76.8139 9.71467 76.6112 10.136C76.4139 10.5573 76.1419 10.9173 75.7953 11.216C75.4486 11.5093 75.0433 11.736 74.5793 11.896C74.1206 12.0507 73.6273 12.128 73.0993 12.128C72.4913 12.128 71.9713 12.0533 71.5393 11.904C71.1073 11.7493 70.7419 11.5387 70.4433 11.272C70.1446 11.0053 69.8993 10.6907 69.7072 10.328C69.5153 9.96 69.3526 9.56267 69.2193 9.136L69.8353 8.88C69.9953 8.81067 70.1499 8.792 70.2993 8.824C70.4539 8.856 70.5659 8.944 70.6353 9.088C70.7046 9.23733 70.7899 9.416 70.8913 9.624C70.9979 9.832 71.1419 10.032 71.3233 10.224C71.5046 10.416 71.7339 10.5787 72.0113 10.712C72.2939 10.8453 72.6513 10.912 73.0833 10.912C73.4833 10.912 73.8326 10.848 74.1313 10.72C74.4353 10.5867 74.6859 10.416 74.8833 10.208C75.0859 10 75.2379 9.768 75.3393 9.512C75.4406 9.256 75.4913 9.00267 75.4913 8.752C75.4913 8.44267 75.4513 8.16 75.3713 7.904C75.2913 7.648 75.1419 7.42667 74.9233 7.24C74.7046 7.05333 74.4033 6.90667 74.0193 6.8C73.6406 6.69333 73.1526 6.64 72.5553 6.64V5.608C73.0459 5.60267 73.4619 5.54933 73.8033 5.448C74.1499 5.34667 74.4299 5.208 74.6433 5.032C74.8619 4.856 75.0193 4.64533 75.1153 4.4C75.2166 4.15467 75.2673 3.88267 75.2673 3.584C75.2673 3.25333 75.2139 2.96533 75.1073 2.72C75.0059 2.47467 74.8646 2.272 74.6833 2.112C74.5019 1.952 74.2859 1.832 74.0353 1.752C73.7899 1.672 73.5233 1.632 73.2352 1.632C72.9473 1.632 72.6779 1.67467 72.4273 1.76C72.1819 1.84533 71.9633 1.96533 71.7713 2.12C71.5846 2.26933 71.4273 2.448 71.2993 2.656C71.1713 2.864 71.0806 3.09333 71.0273 3.344C70.9579 3.53067 70.8699 3.656 70.7633 3.72C70.6619 3.77867 70.5126 3.79467 70.3153 3.768L69.5713 3.64ZM86.6125 6.272C86.6125 7.27467 86.5032 8.144 86.2845 8.88C86.0712 9.61067 85.7778 10.216 85.4045 10.696C85.0312 11.176 84.5885 11.5333 84.0765 11.768C83.5698 12.0027 83.0258 12.12 82.4445 12.12C81.8578 12.12 81.3112 12.0027 80.8045 11.768C80.3032 11.5333 79.8658 11.176 79.4925 10.696C79.1192 10.216 78.8258 9.61067 78.6125 8.88C78.3992 8.144 78.2925 7.27467 78.2925 6.272C78.2925 5.26933 78.3992 4.4 78.6125 3.664C78.8258 2.928 79.1192 2.32 79.4925 1.84C79.8658 1.35467 80.3032 0.994666 80.8045 0.759999C81.3112 0.525332 81.8578 0.407999 82.4445 0.407999C83.0258 0.407999 83.5698 0.525332 84.0765 0.759999C84.5885 0.994666 85.0312 1.35467 85.4045 1.84C85.7778 2.32 86.0712 2.928 86.2845 3.664C86.5032 4.4 86.6125 5.26933 86.6125 6.272ZM85.1325 6.272C85.1325 5.39733 85.0578 4.664 84.9085 4.072C84.7645 3.47467 84.5672 2.99467 84.3165 2.632C84.0712 2.26933 83.7858 2.01067 83.4605 1.856C83.1352 1.696 82.7965 1.616 82.4445 1.616C82.0925 1.616 81.7538 1.696 81.4285 1.856C81.1032 2.01067 80.8178 2.26933 80.5725 2.632C80.3272 2.99467 80.1298 3.47467 79.9805 4.072C79.8365 4.664 79.7645 5.39733 79.7645 6.272C79.7645 7.14667 79.8365 7.88 79.9805 8.472C80.1298 9.064 80.3272 9.54133 80.5725 9.904C80.8178 10.2667 81.1032 10.528 81.4285 10.688C81.7538 10.8427 82.0925 10.92 82.4445 10.92C82.7965 10.92 83.1352 10.8427 83.4605 10.688C83.7858 10.528 84.0712 10.2667 84.3165 9.904C84.5672 9.54133 84.7645 9.064 84.9085 8.472C85.0578 7.88 85.1325 7.14667 85.1325 6.272Z" fill="#FF9100"/>
</svg>
