<svg width="32" height="31" viewBox="0 0 32 31" fill="none" xmlns="http://www.w3.org/2000/svg">
<g clip-path="url(#clip0)">
<path d="M13.1875 30.9302C10.6029 30.9302 8.5 28.9024 8.5 26.4102C8.5 26.1057 8.53206 25.802 8.59431 25.5063H3.8125C3.29431 25.5063 2.875 25.1019 2.875 24.6023V18.6343C2.875 18.3112 3.05444 18.0128 3.34469 17.8513C3.634 17.6897 3.99194 17.6889 4.28312 17.8522C4.70606 18.0887 5.19219 18.2141 5.6875 18.2141C7.23837 18.2141 8.5 16.9976 8.5 15.5021C8.5 14.0067 7.23837 12.7902 5.6875 12.7902C5.19219 12.7902 4.70606 12.9155 4.28306 13.1521C3.99281 13.3145 3.63487 13.3137 3.34462 13.153C3.05444 12.9915 2.875 12.6931 2.875 12.3699V6.402C2.875 5.90234 3.29431 5.49802 3.8125 5.49802H8.59431C8.53206 5.20229 8.5 4.89861 8.5 4.59403C8.5 2.10186 10.6029 0.0740967 13.1875 0.0740967C15.7721 0.0740967 17.875 2.10186 17.875 4.59403C17.875 4.89861 17.8429 5.20229 17.7807 5.49802H22.5625C23.0807 5.49802 23.5 5.90234 23.5 6.402V11.0731C23.8067 11.0131 24.1216 10.9822 24.4375 10.9822C27.0221 10.9822 29.125 13.01 29.125 15.5021C29.125 17.9943 27.0221 20.0221 24.4375 20.0221C24.1216 20.0221 23.8067 19.9912 23.5 19.9311V24.6023C23.5 25.1019 23.0807 25.5063 22.5625 25.5063H17.7807C17.8429 25.802 17.875 26.1057 17.875 26.4102C17.875 28.9024 15.7721 30.9302 13.1875 30.9302Z" fill="url(#paint0_linear)"/>
</g>
<defs>
<linearGradient id="paint0_linear" x1="16" y1="30.9302" x2="16" y2="0.0740967" gradientUnits="userSpaceOnUse">
<stop stop-color="#FD3A84"/>
<stop offset="1" stop-color="#FFA68D"/>
</linearGradient>
<clipPath id="clip0">
<rect width="32" height="30.8561" fill="white" transform="translate(0 0.0740967)"/>
</clipPath>
</defs>
</svg>
